<svg xmlns="http://www.w3.org/2000/svg" xmlns:xlink="http://www.w3.org/1999/xlink" width="3140.056" height="2159.95" viewBox="0 0 3140.056 2159.95">
  <defs>
    <clipPath id="clip-path">
      <path id="Trazado_66" data-name="Trazado 66" d="M2029.106,2711.2l-698.8-2159.95h487.037l481,1518.63h6.062l487.036-1518.63h490.084L2564.565,2711.2Z" transform="translate(-1330.308 -551.251)" fill="#e7e7e8"/>
    </clipPath>
    <clipPath id="clip-path-2">
      <path id="Trazado_70" data-name="Trazado 70" d="M1997.77,551.251V2711.2H1522.813V551.251Z" transform="translate(-1522.813 -551.251)" fill="#e7e7e8"/>
    </clipPath>
    <clipPath id="clip-path-3">
      <path id="Trazado_74" data-name="Trazado 74" d="M2067.791,551.251V2711.2H1592.843V551.251Z" transform="translate(-1592.843 -551.251)" fill="#e7e7e8"/>
    </clipPath>
  </defs>
  <g id="Grupo_35" data-name="Grupo 35" opacity="0.5" style="mix-blend-mode: multiply;isolation: isolate">
    <g id="Grupo_27" data-name="Grupo 27" transform="translate(0 0)">
      <g id="Grupo_26" data-name="Grupo 26" clip-path="url(#clip-path)">
        <g id="Grupo_25" data-name="Grupo 25" transform="translate(-571.701 -1343.69)">
          <path id="Trazado_63" data-name="Trazado 63" d="M3794.866,418.887h72.554c219.81,61.752,467.323,181.62,438.828,442.269-21.9,199.892-152.323,354.155-255.716,476.825-228.622,271.2-427.01,537.653-653.014,794.677-90.336,102.734-191.466,217.892-283.328,352.409-87.322,127.878-229.828,292.118-210.753,497.584,15.156,163.572,135.806,288.921,234.936,366.225,275.458,214.866,729.585,323.874,1147.135,387,150.108,22.7,309.246-5.015,469.9,20.719,27.632,4.385,64.715,22.669,55.294,72.574-15.115,80.023-189.894,134.588-266.061,176.209-99.393,54.28-175.741,126.527-272.941,165.813-108.388,43.824-222.084,69.569-331.721,107.16-227.789,78.084-427.651,147.612-687.588,183.111h-96.743c-514.195-37.031-927.227-216.632-1247.333-442.268-370.885-261.451-610.215-806.372-511.381-1458.087,88.379-582.786,509.635-841.588,832.716-1188.626,2.122,5.046,4.163-.314,0,0,218.387-179.61,479.557-381.391,753.26-535.571,132.649-74.695,254.71-223.587,411.145-262.589C3558.4,533.385,3619.715,444.438,3794.866,418.887Z" transform="translate(-353.466 -418.887)" fill="#e7e7e8" fill-rule="evenodd"/>
          <path id="Trazado_64" data-name="Trazado 64" d="M3032.705,499.164c-5.027,2.132.354,4.142,0,0,33.59,57.915,67.465,113.86,82.915,179.672-5,2.1.346,4.192,0,0,131.24,379.422-207.506,508.609-373.158,694.523-307.568,345.069-526.474,745.25-621.94,1330.209-2.122-4.974-4.173.355,0,0-4.577,18.516-4.486,41.61-13.825,55.274-2.112-4.974-4.181.4,0,0,2.558,130.721-85.171,104.429-193.488,107.149-90.957,2.295-206.105,60.087-248.772-24.2,5.024-2.132-.356-4.142,0,0-46.879-31.429-87.455-69.172-124.376-110.55,5.016-2.132-.365-4.183,0,0-27.185-26.455-52.219-55.234-69.11-82.948,5.013-2.132-.356-4.152,0,0-57.174-73.872-100.125-141.024-145.126-248.772,5.024-2.092-.356-4.183,0,0-28.171-57.925-46.342-138.142-51.833-221.14v-110.55c30.048-442.98,156.008-713.3,355.9-960.573,2.1,5.046,4.163-.314,0,0,11.44-13.856,22.638-28,34.546-41.458,2.111,5.056,4.173-.355,0,0,74.207-87.14,174.291-183.041,262.588-248.772,2.121,5.056,4.183-.355,0,0,18.771-13.461,33.835-30.637,55.294-41.458,2.123,5.056,4.162-.356,0,0A1688.078,1688.078,0,0,1,2217.267,623.53c2.131,5.056,4.181-.355,0,0C2419.625,505.4,2773.06,372.748,3032.705,499.164Z" transform="translate(-1273.992 -153.659)" fill="#e7e7e8" fill-rule="evenodd"/>
          <path id="Trazado_65" data-name="Trazado 65" d="M1630.747,2012.063c5.014-2.091-.366-4.142,0,0-198.126-183.59-3.928-623.22,117.473-746.316,2.111,5.014,4.161-.356,0,0,43.285-86.785,78.5-119.2,186.573-127.848,138.923-11.167,206.664-195.548,307.53-238.387,30.14-12.832,47.946-34.343,82.916-55.315,113.7-68.137,258.873-137.308,393.9-193.456,189.153-78.725,350.785,7.786,476.814,51.8C3359.6,759.715,3330.936,456.1,3524.19,564.32c98.429,55.113,150.9,327.334,179.681,490.631,45.529,258.254-12.659,512.112-110.56,694.523-79.131,147.42-248.142,215.648-383.542,331.679-127.685,109.484-342.694,143.115-532.1,183.153-283.683,59.934-720.248,78.927-926-34.545C1669.931,2184.668,1692.874,2074.637,1630.747,2012.063Z" transform="translate(1212.905 696.798)" fill="#e7e7e8" fill-rule="evenodd"/>
        </g>
      </g>
    </g>
    <g id="Grupo_30" data-name="Grupo 30" transform="translate(1954.2 0)">
      <g id="Grupo_29" data-name="Grupo 29" clip-path="url(#clip-path-2)">
        <g id="Grupo_28" data-name="Grupo 28" transform="translate(-2525.901 -1343.69)">
          <path id="Trazado_67" data-name="Trazado 67" d="M3794.866,418.887h72.554c219.81,61.752,467.323,181.62,438.828,442.269-21.9,199.892-152.323,354.155-255.716,476.825-228.622,271.2-427.01,537.653-653.014,794.677-90.336,102.734-191.466,217.892-283.328,352.409-87.322,127.878-229.828,292.118-210.753,497.584,15.156,163.572,135.806,288.921,234.936,366.225,275.458,214.866,729.585,323.874,1147.135,387,150.108,22.7,309.246-5.015,469.9,20.719,27.632,4.385,64.715,22.669,55.294,72.574-15.115,80.023-189.894,134.588-266.061,176.209-99.393,54.28-175.741,126.527-272.941,165.813-108.388,43.824-222.084,69.569-331.721,107.16-227.789,78.084-427.651,147.612-687.588,183.111h-96.743c-514.195-37.031-927.227-216.632-1247.333-442.268-370.885-261.451-610.215-806.372-511.381-1458.087,88.379-582.786,509.635-841.588,832.716-1188.626,2.122,5.046,4.163-.314,0,0,218.387-179.61,479.557-381.391,753.26-535.571,132.649-74.695,254.71-223.587,411.145-262.589C3558.4,533.385,3619.715,444.438,3794.866,418.887Z" transform="translate(-353.466 -418.887)" fill="#e7e7e8" fill-rule="evenodd"/>
          <path id="Trazado_68" data-name="Trazado 68" d="M3032.705,499.164c-5.027,2.132.354,4.142,0,0,33.59,57.915,67.465,113.86,82.915,179.672-5,2.1.346,4.192,0,0,131.24,379.422-207.506,508.609-373.158,694.523-307.568,345.069-526.474,745.25-621.94,1330.209-2.122-4.974-4.173.355,0,0-4.577,18.516-4.486,41.61-13.825,55.274-2.112-4.974-4.181.4,0,0,2.558,130.721-85.171,104.429-193.488,107.149-90.957,2.295-206.105,60.087-248.772-24.2,5.024-2.132-.356-4.142,0,0-46.879-31.429-87.455-69.172-124.376-110.55,5.016-2.132-.365-4.183,0,0-27.185-26.455-52.219-55.234-69.11-82.948,5.013-2.132-.356-4.152,0,0-57.174-73.872-100.125-141.024-145.126-248.772,5.024-2.092-.356-4.183,0,0-28.171-57.925-46.342-138.142-51.833-221.14v-110.55c30.048-442.98,156.008-713.3,355.9-960.573,2.1,5.046,4.163-.314,0,0,11.44-13.856,22.638-28,34.546-41.458,2.111,5.056,4.173-.355,0,0,74.207-87.14,174.291-183.041,262.588-248.772,2.121,5.056,4.183-.355,0,0,18.771-13.461,33.835-30.637,55.294-41.458,2.123,5.056,4.162-.356,0,0A1688.078,1688.078,0,0,1,2217.267,623.53c2.131,5.056,4.181-.355,0,0C2419.625,505.4,2773.06,372.748,3032.705,499.164Z" transform="translate(-1273.992 -153.659)" fill="#e7e7e8" fill-rule="evenodd"/>
          <path id="Trazado_69" data-name="Trazado 69" d="M1630.747,2012.063c5.014-2.091-.366-4.142,0,0-198.126-183.59-3.928-623.22,117.473-746.316,2.111,5.014,4.161-.356,0,0,43.285-86.785,78.5-119.2,186.573-127.848,138.923-11.167,206.664-195.548,307.53-238.387,30.14-12.832,47.946-34.343,82.916-55.315,113.7-68.137,258.873-137.308,393.9-193.456,189.153-78.725,350.785,7.786,476.814,51.8C3359.6,759.715,3330.936,456.1,3524.19,564.32c98.429,55.113,150.9,327.334,179.681,490.631,45.529,258.254-12.659,512.112-110.56,694.523-79.131,147.42-248.142,215.648-383.542,331.679-127.685,109.484-342.694,143.115-532.1,183.153-283.683,59.934-720.248,78.927-926-34.545C1669.931,2184.668,1692.874,2074.637,1630.747,2012.063Z" transform="translate(1212.905 696.798)" fill="#e7e7e8" fill-rule="evenodd"/>
        </g>
      </g>
    </g>
    <g id="Grupo_33" data-name="Grupo 33" transform="translate(2665.108 0)">
      <g id="Grupo_32" data-name="Grupo 32" clip-path="url(#clip-path-3)">
        <g id="Grupo_31" data-name="Grupo 31" transform="translate(-3236.809 -1343.69)">
          <path id="Trazado_71" data-name="Trazado 71" d="M3794.866,418.887h72.554c219.81,61.752,467.323,181.62,438.828,442.269-21.9,199.892-152.323,354.155-255.716,476.825-228.622,271.2-427.01,537.653-653.014,794.677-90.336,102.734-191.466,217.892-283.328,352.409-87.322,127.878-229.828,292.118-210.753,497.584,15.156,163.572,135.806,288.921,234.936,366.225,275.458,214.866,729.585,323.874,1147.135,387,150.108,22.7,309.246-5.015,469.9,20.719,27.632,4.385,64.715,22.669,55.294,72.574-15.115,80.023-189.894,134.588-266.061,176.209-99.393,54.28-175.741,126.527-272.941,165.813-108.388,43.824-222.084,69.569-331.721,107.16-227.789,78.084-427.651,147.612-687.588,183.111h-96.743c-514.195-37.031-927.227-216.632-1247.333-442.268-370.885-261.451-610.215-806.372-511.381-1458.087,88.379-582.786,509.635-841.588,832.716-1188.626,2.122,5.046,4.163-.314,0,0,218.387-179.61,479.557-381.391,753.26-535.571,132.649-74.695,254.71-223.587,411.145-262.589C3558.4,533.385,3619.715,444.438,3794.866,418.887Z" transform="translate(-353.466 -418.887)" fill="#e7e7e8" fill-rule="evenodd"/>
          <path id="Trazado_72" data-name="Trazado 72" d="M3032.705,499.164c-5.027,2.132.354,4.142,0,0,33.59,57.915,67.465,113.86,82.915,179.672-5,2.1.346,4.192,0,0,131.24,379.422-207.506,508.609-373.158,694.523-307.568,345.069-526.474,745.25-621.94,1330.209-2.122-4.974-4.173.355,0,0-4.577,18.516-4.486,41.61-13.825,55.274-2.112-4.974-4.181.4,0,0,2.558,130.721-85.171,104.429-193.488,107.149-90.957,2.295-206.105,60.087-248.772-24.2,5.024-2.132-.356-4.142,0,0-46.879-31.429-87.455-69.172-124.376-110.55,5.016-2.132-.365-4.183,0,0-27.185-26.455-52.219-55.234-69.11-82.948,5.013-2.132-.356-4.152,0,0-57.174-73.872-100.125-141.024-145.126-248.772,5.024-2.092-.356-4.183,0,0-28.171-57.925-46.342-138.142-51.833-221.14v-110.55c30.048-442.98,156.008-713.3,355.9-960.573,2.1,5.046,4.163-.314,0,0,11.44-13.856,22.638-28,34.546-41.458,2.111,5.056,4.173-.355,0,0,74.207-87.14,174.291-183.041,262.588-248.772,2.121,5.056,4.183-.355,0,0,18.771-13.461,33.835-30.637,55.294-41.458,2.123,5.056,4.162-.356,0,0A1688.078,1688.078,0,0,1,2217.267,623.53c2.131,5.056,4.181-.355,0,0C2419.625,505.4,2773.06,372.748,3032.705,499.164Z" transform="translate(-1273.992 -153.659)" fill="#e7e7e8" fill-rule="evenodd"/>
          <path id="Trazado_73" data-name="Trazado 73" d="M1630.747,2012.063c5.014-2.091-.366-4.142,0,0-198.126-183.59-3.928-623.22,117.473-746.316,2.111,5.014,4.161-.356,0,0,43.285-86.785,78.5-119.2,186.573-127.848,138.923-11.167,206.664-195.548,307.53-238.387,30.14-12.832,47.946-34.343,82.916-55.315,113.7-68.137,258.873-137.308,393.9-193.456,189.153-78.725,350.785,7.786,476.814,51.8C3359.6,759.715,3330.936,456.1,3524.19,564.32c98.429,55.113,150.9,327.334,179.681,490.631,45.529,258.254-12.659,512.112-110.56,694.523-79.131,147.42-248.142,215.648-383.542,331.679-127.685,109.484-342.694,143.115-532.1,183.153-283.683,59.934-720.248,78.927-926-34.545C1669.931,2184.668,1692.874,2074.637,1630.747,2012.063Z" transform="translate(1212.905 696.798)" fill="#e7e7e8" fill-rule="evenodd"/>
        </g>
      </g>
    </g>
  </g>
</svg>
