<svg xmlns="http://www.w3.org/2000/svg" width="435.338" height="74.551" viewBox="0 0 435.338 74.551">
  <g id="LOGO_PLADUR" data-name="LOGO PLADUR" transform="translate(-264.712 -133.188)">
    <g id="Grupo_36" data-name="Grupo 36">
      <path id="Trazado_75" data-name="Trazado 75" d="M408.992,160.341l.059-.362-.02-.361q-.076-1.344-1.978-2.223a19.143,19.143,0,0,0-7-.981h-5.168l-1.7,8.268h7.56a13.055,13.055,0,0,0,5.535-1.008,4.738,4.738,0,0,0,2.706-3.333m17.354-.052q-1.273,6.2-7.676,9.638t-18.125,3.437h-9.179l-2.361,11.577H370.8l7.707-37.21h26.768q10.258,0,15.651,2.636t5.658,7.338a10.885,10.885,0,0,1-.01,1.189A7.081,7.081,0,0,1,426.346,160.289Z" fill="#bfc81f"/>
      <path id="Trazado_76" data-name="Trazado 76" d="M467.878,184.94H426.1l6.656-37.211h18.294l-4.593,25.694h20.955l11.222-17.557,15.937-.024-7.285,11.9,11.258-.169-4.909-19.844h16.385l11.873,37.211H501.1l-1.095-4.909h-18.2l-3.036,4.909H467.878" fill="#bfc81f" fill-rule="evenodd"/>
      <path id="Trazado_77" data-name="Trazado 77" d="M557.977,166.233c.123-.724.219-1.378.3-1.965a9.926,9.926,0,0,0,.053-1.807,5.114,5.114,0,0,0-3.174-4.73q-2.969-1.318-9.492-1.317h-.883l-4.338,19.844h1.3q7.018,0,11.042-2.428a11.355,11.355,0,0,0,5.2-7.6m18.763-.672a21.417,21.417,0,0,1-11.9,14.935q-8.984,4.443-23.927,4.445H520.983l6.834-37.21h21.841q12.8,0,19.933,3.309t7.543,10.128a19.275,19.275,0,0,1,.044,2.068A16.4,16.4,0,0,1,576.74,165.561Z" fill="#bfc81f"/>
      <path id="Trazado_78" data-name="Trazado 78" d="M632.835,147.731,628.8,168.765q-1.669,8.938-8.392,13.048t-19.45,4.109q-10.667,0-15.855-2.686a10.574,10.574,0,0,1-5.968-9.51,23.45,23.45,0,0,1,.38-5.013l4.034-20.982h18.484l-3.685,22.275-.219,2.634a3.848,3.848,0,0,0,1.619,3.1c1.009.724.477,1.085,2.944,1.085a7.634,7.634,0,0,0,5.667-1.86,9.6,9.6,0,0,0,2.587-4.96l4.253-22.275h17.634" fill="#bfc81f"/>
      <path id="Trazado_79" data-name="Trazado 79" d="M667.082,160.289l.032-.775a2.6,2.6,0,0,0-1.829-2.327,10.528,10.528,0,0,0-4.484-.773h-5.306l-1.453,7.388h4.049a20.185,20.185,0,0,0,6.4-.773,3.65,3.65,0,0,0,2.592-2.74m19.385-1.964a10.862,10.862,0,0,1-3.357,5.712,14.821,14.821,0,0,1-7.408,3.385c2.6.689,2.359,1.326,3.228,1.911,1.383.9,3.2,3.22,3.3,5.114.034.619.57,10.494.57,10.494H662.56l-.129-1.035c-.019-.378-.039-.731-.057-1.059a6.089,6.089,0,0,1,.083-1.213,12.186,12.186,0,0,1,.429-3l.352-3.1a3.084,3.084,0,0,0-1.922-2.738,17.963,17.963,0,0,0-6.415-.827h-1.359l-2.558,12.972H632.378l7.4-37.21h25.172q11.4,0,16.461,1.913t5.29,6.149a9.528,9.528,0,0,1-.011,1.163A7.5,7.5,0,0,1,686.467,158.325Z" fill="#bfc81f"/>
    </g>
    <g id="Grupo_37" data-name="Grupo 37">
      <path id="Trazado_80" data-name="Trazado 80" d="M271.554,166.133l4.258-32.906H304.4l-32.844,32.906" fill="#bfc81f"/>
      <path id="Trazado_81" data-name="Trazado 81" d="M346.792,139.172l-28.723.038-42.3,40.095-3.979,22.166h28.6l4.469-24.882h15.168c10.352,0,23.033,1.8,32.247-3.388,6.24-3.513,10.423-8.378,11.466-15.564l.022-.142.028-.141a9.085,9.085,0,0,0,.193-1.777,16.493,16.493,0,0,0-.082-1.8c-1.162-10.367-7.863-13.827-17.108-14.6m22.879,19.2q-1.8,12.419-14.029,19.3c-8.15,4.589-17.1,4.9-32.5,4.9H309.872l-3.9,25.165h-41.26l4.515-27.678.569-3.138,43.825-43.7h2.613L347,133.188c14.895,1.165,21.631,9.067,22.855,20.013a21.46,21.46,0,0,1,.115,2.379A14.131,14.131,0,0,1,369.671,158.375Z" fill="#12422a"/>
    </g>
    <g id="Grupo_38" data-name="Grupo 38">
      <path id="Trazado_82" data-name="Trazado 82" d="M690.415,144.225a4.954,4.954,0,0,1,1.088-1.575,5.078,5.078,0,0,1,1.6-1.048,5.015,5.015,0,0,1,6.546,2.623,4.82,4.82,0,0,1,.4,1.961,4.93,4.93,0,0,1-.4,1.995,5.078,5.078,0,0,1-1.081,1.589,4.858,4.858,0,0,1-1.588,1.047,5.211,5.211,0,0,1-3.877,0,4.926,4.926,0,0,1-1.6-1.047,5.015,5.015,0,0,1-1.088-1.589,4.93,4.93,0,0,1-.4-1.995A4.82,4.82,0,0,1,690.415,144.225Zm.821,3.663a4.144,4.144,0,0,0,.868,1.354,4,4,0,0,0,1.308.9,4.056,4.056,0,0,0,1.634.327,3.985,3.985,0,0,0,1.615-.327,4.042,4.042,0,0,0,1.3-.9,4.177,4.177,0,0,0,.868-1.354,4.529,4.529,0,0,0,.313-1.7,4.4,4.4,0,0,0-.313-1.668,4.054,4.054,0,0,0-2.169-2.235,3.985,3.985,0,0,0-1.615-.327,4.07,4.07,0,0,0-2.942,1.221,4.1,4.1,0,0,0-.868,1.341,4.4,4.4,0,0,0-.314,1.668A4.528,4.528,0,0,0,691.236,147.888Zm4.117-4.6a2.386,2.386,0,0,1,1.541.413,1.533,1.533,0,0,1,.5,1.255,1.423,1.423,0,0,1-.44,1.154,1.983,1.983,0,0,1-1.1.434l1.668,2.575h-.974l-1.588-2.509h-.961v2.509H693.1v-5.831Zm-.4,2.589c.205,0,.4-.007.58-.02a1.507,1.507,0,0,0,.487-.114.764.764,0,0,0,.341-.287.985.985,0,0,0,.127-.54.832.832,0,0,0-.115-.467.752.752,0,0,0-.293-.267,1.288,1.288,0,0,0-.414-.127,3.277,3.277,0,0,0-.46-.033h-1.2v1.855Z" fill="#12422a"/>
    </g>
  </g>
</svg>
