<svg xmlns="http://www.w3.org/2000/svg" xmlns:xlink="http://www.w3.org/1999/xlink" width="219.644" height="167.358" viewBox="0 0 219.644 167.358">
  <defs>
    <linearGradient id="linear-gradient" x1="2.234" y1="-0.909" x2="-0.293" y2="1.145" gradientUnits="objectBoundingBox">
      <stop offset="0" stop-color="#e95700"/>
      <stop offset="0.999" stop-color="#e13505"/>
    </linearGradient>
    <linearGradient id="linear-gradient-2" x1="2.494" y1="-1.12" x2="-1.361" y2="2.012" xlink:href="#linear-gradient"/>
    <linearGradient id="linear-gradient-3" x1="1.01" y1="0.086" x2="-0.86" y2="1.605" xlink:href="#linear-gradient"/>
  </defs>
  <g id="LOGO_RTW" data-name="LOGO RTW" transform="translate(-420.425 -292.299)">
    <g id="Grupo_48" data-name="Grupo 48" transform="translate(502.967 443.965)">
      <path id="Trazado_94" data-name="Trazado 94" d="M556.281,547.784c-1.533-.429-2.619-1.071-2.619-2.67,0-1.531,1.219-2.52,3.13-2.52a7.074,7.074,0,0,1,2.67.51v2.109a6.21,6.21,0,0,0-2.093-.61,2.869,2.869,0,0,0-.758.033c-.346.066-.692.23-.692.593,0,.412.412.626,1.285.89,1.879.527,2.768,1.186,2.768,2.669,0,1.582-1.3,2.5-3.394,2.5a6.971,6.971,0,0,1-2.8-.543v-2.158a6.836,6.836,0,0,0,2.769.758c.609,0,1.17-.165,1.17-.659C557.715,548.245,557.22,548.064,556.281,547.784Z" transform="translate(-553.662 -539.199)" fill="#e75110"/>
      <path id="Trazado_95" data-name="Trazado 95" d="M566.558,542.824H568.8l.049.692a4.509,4.509,0,0,1-.032.56h.032a3,3,0,0,1,2.669-1.483c2.126,0,3.839,1.647,3.839,4.349,0,2.719-1.714,4.35-3.773,4.35A3.069,3.069,0,0,1,569,550.024h-.033a3.679,3.679,0,0,1,.05.692v3.971h-2.455Zm6.475,4.119a1.989,1.989,0,1,0-1.961,2.274A2.045,2.045,0,0,0,573.033,546.943Z" transform="translate(-558.569 -539.199)" fill="#e75110"/>
      <path id="Trazado_96" data-name="Trazado 96" d="M583.005,543.154a7.661,7.661,0,0,1,3.015-.56c2.538,0,3.806,1.219,3.806,3.278v5.19H587.6l-.05-.758a2.475,2.475,0,0,1,.034-.577h-.034A2.816,2.816,0,0,1,585,551.293a2.406,2.406,0,0,1-2.62-2.5c0-2.01,2.043-3,5.009-2.587V546c0-.989-.676-1.351-1.763-1.351a5.325,5.325,0,0,0-2.62.709Zm4.317,4.333c-1.846-.3-2.62.28-2.62,1.054a.85.85,0,0,0,.939.874A1.806,1.806,0,0,0,587.322,547.487Z" transform="translate(-564.589 -539.199)" fill="#e75110"/>
      <path id="Trazado_97" data-name="Trazado 97" d="M601.4,549.135a4.274,4.274,0,0,0,2.192-.675v2.224a5.329,5.329,0,0,1-2.521.61,4.35,4.35,0,1,1,0-8.7,5.183,5.183,0,0,1,2.471.593v2.241a3.929,3.929,0,0,0-2.142-.676,2.192,2.192,0,1,0,0,4.383Z" transform="translate(-570.031 -539.199)" fill="#e75110"/>
      <path id="Trazado_98" data-name="Trazado 98" d="M617.578,546.449a9.29,9.29,0,0,1-.066,1.005h-5.4c.1,1.12.955,1.762,2.29,1.762a6.868,6.868,0,0,0,2.851-.609V550.7a7.217,7.217,0,0,1-3.081.593,4.252,4.252,0,0,1-4.613-4.35,4.179,4.179,0,0,1,4.185-4.349A3.648,3.648,0,0,1,617.578,546.449Zm-3.855-1.911a1.625,1.625,0,0,0-1.615,1.648h3.114A1.467,1.467,0,0,0,613.723,544.538Z" transform="translate(-574.928 -539.199)" fill="#e75110"/>
      <path id="Trazado_99" data-name="Trazado 99" d="M626.932,547.784c-1.532-.429-2.619-1.071-2.619-2.67,0-1.531,1.219-2.52,3.13-2.52a7.07,7.07,0,0,1,2.669.51v2.109a6.21,6.21,0,0,0-2.093-.61,2.866,2.866,0,0,0-.757.033c-.346.066-.692.23-.692.593,0,.412.412.626,1.285.89,1.878.527,2.767,1.186,2.767,2.669,0,1.582-1.3,2.5-3.394,2.5a6.973,6.973,0,0,1-2.8-.543v-2.158a6.838,6.838,0,0,0,2.769.758c.61,0,1.17-.165,1.17-.659C628.366,548.245,627.872,548.064,626.932,547.784Z" transform="translate(-580.544 -539.199)" fill="#e75110"/>
      <path id="Trazado_100" data-name="Trazado 100" d="M642.3,552.7a2.655,2.655,0,0,0,.973.165c1.087,0,1.647-.725,2.093-1.664l-3.395-8.238h2.7l.955,2.867c.346,1,.692,2.026.972,3.064.214-.461.758-2.455.989-3.064l.956-2.867h2.669l-3.2,8.172c-.939,2.439-2.175,3.658-3.9,3.856a4.384,4.384,0,0,1-1.038.016,2.857,2.857,0,0,1-.774-.148Z" transform="translate(-587.261 -539.341)" fill="#e75110"/>
      <path id="Trazado_101" data-name="Trazado 101" d="M666.28,546.943a4.391,4.391,0,1,1-4.4-4.349A4.247,4.247,0,0,1,666.28,546.943Zm-2.323,0a2.077,2.077,0,1,0-2.075,2.274A2.1,2.1,0,0,0,663.956,546.943Z" transform="translate(-593.17 -539.199)" fill="#e75110"/>
      <path id="Trazado_102" data-name="Trazado 102" d="M679.791,551.2l-.066-.939a1.458,1.458,0,0,1,.066-.577h-.032a3.263,3.263,0,0,1-2.8,1.746c-1.862,0-2.867-1.137-2.867-3.312v-5.157h2.472v4.745c0,.824.23,1.483,1.12,1.483a1.938,1.938,0,0,0,1.9-2.126v-4.1h2.455V551.2Z" transform="translate(-599.484 -539.341)" fill="#e75110"/>
      <path id="Trazado_103" data-name="Trazado 103" d="M703.62,545.734c.28.807.527,1.7.708,2.339.214-.477.527-1.631.791-2.356l.939-2.751h2.571l-3.444,8.337h-1.6l-1.631-4.514-1.615,4.514h-1.615l-3.443-8.337h2.57c.593,1.746,1.3,3.69,1.714,5.107l1.664-5.058h1.45Z" transform="translate(-607.547 -539.341)" fill="#e75110"/>
      <path id="Trazado_104" data-name="Trazado 104" d="M717.874,543.154a7.664,7.664,0,0,1,3.015-.56c2.538,0,3.806,1.219,3.806,3.278v5.19H722.47l-.05-.758a2.477,2.477,0,0,1,.033-.577h-.033a2.816,2.816,0,0,1-2.554,1.566,2.4,2.4,0,0,1-2.619-2.5c0-2.01,2.043-3,5.008-2.587V546c0-.989-.675-1.351-1.762-1.351a5.325,5.325,0,0,0-2.62.709Zm4.317,4.333c-1.845-.3-2.619.28-2.619,1.054a.849.849,0,0,0,.939.874A1.806,1.806,0,0,0,722.19,547.487Z" transform="translate(-615.905 -539.199)" fill="#e75110"/>
      <path id="Trazado_105" data-name="Trazado 105" d="M734.82,542.824l.066.939a1.819,1.819,0,0,1-.066.576h.033a3.275,3.275,0,0,1,2.834-1.746c1.862,0,2.867,1.137,2.867,3.312v5.157h-2.471v-4.745c0-.807-.23-1.483-1.12-1.483a1.944,1.944,0,0,0-1.928,2.126v4.1h-2.472v-8.238Z" transform="translate(-621.732 -539.199)" fill="#e75110"/>
      <path id="Trazado_106" data-name="Trazado 106" d="M748.374,541.448v-2.471h2.389v2.471h2.192v1.927h-2.192v3.312c0,.874.511,1.17,1.055,1.17a3.305,3.305,0,0,0,1.4-.346v2.027a5.107,5.107,0,0,1-2.093.378,2.506,2.506,0,0,1-2.751-2.34c-.016-.263-.05-.543-.05-.84v-3.361h-1.137v-1.927Z" transform="translate(-627.296 -537.823)" fill="#e75110"/>
      <path id="Trazado_107" data-name="Trazado 107" d="M761,546.556a1.327,1.327,0,1,1-1.368,1.334A1.263,1.263,0,0,1,761,546.556Zm-1.236-9.442h2.471l-.23,8.37h-2.026Z" transform="translate(-632.031 -537.114)" fill="#e75110"/>
    </g>
    <g id="Grupo_49" data-name="Grupo 49" transform="translate(420.425 292.299)">
      <path id="Trazado_108" data-name="Trazado 108" d="M459.619,423.225h-28.23V395h11.784V384.032H420.425v50.157h50.157V411.441H459.619Z" transform="translate(-420.425 -327.202)" fill="url(#linear-gradient)"/>
      <path id="Trazado_109" data-name="Trazado 109" d="M487.92,366.334H476.957V377.3H465.993v10.964h10.964v10.964H487.92V388.262h10.964V377.3H487.92Z" transform="translate(-437.763 -320.469)" fill="url(#linear-gradient-2)"/>
      <path id="Trazado_110" data-name="Trazado 110" d="M483.69,292.3v40.384h10.964v-29.42h45.865v45.866H511.1v10.964h40.383V292.3Z" transform="translate(-444.497 -292.299)" fill="url(#linear-gradient-3)"/>
    </g>
    <g id="Grupo_50" data-name="Grupo 50" transform="translate(479.581 368.914)">
      <path id="Trazado_111" data-name="Trazado 111" d="M515.913,415.969H526.6c3.718,0,6.463.465,8.576,1.521a8.882,8.882,0,0,1-.676,16.222l8.111,12.843h-9.843l-6.8-11.618h-1.352v11.618h-8.7Zm10.857,13.012a6.791,6.791,0,0,0,3.422-.634,2.943,2.943,0,0,0-.253-4.942,8.839,8.839,0,0,0-3.718-.507h-1.605v6.084Z" transform="translate(-515.913 -415.969)" fill="#161615"/>
      <path id="Trazado_112" data-name="Trazado 112" d="M561.534,415.969h19.94v7.351H570.237v3.887h9.5v6.928h-9.5V439.2h11.744v7.35H561.534Z" transform="translate(-533.271 -415.969)" fill="#161615"/>
      <path id="Trazado_113" data-name="Trazado 113" d="M609.439,415.969h8.576l12.378,30.586h-9.463l-2.155-6.253H608.3l-2.24,6.253h-9Zm4.14,9.294c-.591,1.943-1.183,3.718-1.9,5.7l-1.056,2.915h5.914l-1.014-2.915c-.719-2.07-1.268-3.8-1.859-5.7Z" transform="translate(-546.789 -415.969)" fill="#161615"/>
      <path id="Trazado_114" data-name="Trazado 114" d="M654.889,415.969h8.787c6.337,0,11.11,1.056,14.363,3.506,3.379,2.535,5.239,6.675,5.239,11.829,0,4.562-1.436,8.365-4.351,11.026-3.041,2.746-7.731,4.224-15.081,4.224h-8.956ZM663.93,439.2c5.534,0,7.774-1.1,9.083-2.661a8.119,8.119,0,0,0,1.563-5.239c0-2.873-.887-4.943-2.619-6.253-1.859-1.394-4.647-1.732-8.069-1.732h-.3V439.2Z" transform="translate(-568.792 -415.969)" fill="#161615"/>
      <path id="Trazado_115" data-name="Trazado 115" d="M709.177,432.867l-11.87-16.9h10.138l2.788,4.309c1.141,1.732,2.324,3.591,3.379,5.323h.085c1.1-1.775,2.2-3.549,3.295-5.238l2.831-4.394h9.886L717.879,432.7v13.857h-8.7Z" transform="translate(-584.931 -415.969)" fill="#161615"/>
    </g>
    <g id="Grupo_51" data-name="Grupo 51" transform="translate(420.679 406.269)">
      <path id="Trazado_116" data-name="Trazado 116" d="M430.551,484.367h-9.716v-7.351H448.97v7.351h-9.716V507.6h-8.7Z" transform="translate(-420.835 -476.551)" fill="#161615"/>
      <path id="Trazado_117" data-name="Trazado 117" d="M483.829,476.266c9.21,0,16.348,6.928,16.348,15.757s-7.139,15.758-16.348,15.758-16.35-6.929-16.35-15.758S474.618,476.266,483.829,476.266Zm0,23.7a7.948,7.948,0,1,0-7.647-7.943A7.713,7.713,0,0,0,483.829,499.966Z" transform="translate(-438.583 -476.266)" fill="#161615"/>
      <path id="Trazado_118" data-name="Trazado 118" d="M536.831,477.016h9.125l2.957,10.857c.719,2.62,1.437,5.365,2.07,7.9h.084c.676-2.535,1.479-5.365,2.239-7.942l3.169-10.815h6.378l3.085,10.773c.76,2.661,1.521,5.366,2.2,7.984h.084c.719-2.7,1.478-5.45,2.239-8.111l3.042-10.646h8.787L572.95,507.6h-9.209l-2.113-7.393c-.761-2.7-1.479-5.28-2.155-7.942h-.084c-.719,2.7-1.479,5.45-2.24,8.069l-2.112,7.266h-9Z" transform="translate(-464.97 -476.551)" fill="#161615"/>
      <path id="Trazado_119" data-name="Trazado 119" d="M626.488,476.266c9.21,0,16.348,6.928,16.348,15.757s-7.139,15.758-16.348,15.758-16.349-6.929-16.349-15.758S617.278,476.266,626.488,476.266Zm0,23.7a7.948,7.948,0,1,0-7.647-7.943A7.714,7.714,0,0,0,626.488,499.966Z" transform="translate(-492.863 -476.266)" fill="#161615"/>
      <path id="Trazado_120" data-name="Trazado 120" d="M668.989,477.016h10.688c3.718,0,6.463.465,8.575,1.521a8.882,8.882,0,0,1-.675,16.222l8.111,12.843h-9.843l-6.8-11.618h-1.351V507.6h-8.7Zm10.857,13.012a6.8,6.8,0,0,0,3.422-.634,2.943,2.943,0,0,0-.254-4.942,8.839,8.839,0,0,0-3.718-.507h-1.6v6.084Z" transform="translate(-515.255 -476.551)" fill="#161615"/>
      <path id="Trazado_121" data-name="Trazado 121" d="M714.61,477.016h8.7v13.265l.084.042,8.83-13.307H742.45l-10.1,14.195L743.3,507.6H732.733l-9.337-15-.084.042V507.6h-8.7Z" transform="translate(-532.613 -476.551)" fill="#161615"/>
    </g>
    <g id="Grupo_52" data-name="Grupo 52" transform="translate(632.113 403.13)">
      <path id="Trazado_122" data-name="Trazado 122" d="M762.126,475.093a3.979,3.979,0,1,1,3.979,3.9A3.843,3.843,0,0,1,762.126,475.093Zm7.036,0a3.057,3.057,0,1,0-3.057,3.037A2.93,2.93,0,0,0,769.162,475.093Zm-3.225.649h-.189v1.466h-1.277v-4.23h1.78c.9,0,1.675.482,1.675,1.382a1.284,1.284,0,0,1-.775,1.172l1.026,1.676h-1.466Zm.167-.879c.356,0,.524-.126.524-.418,0-.252-.167-.377-.524-.377h-.356v.8Z" transform="translate(-762.126 -471.199)" fill="#e75110"/>
    </g>
  </g>
</svg>
