<svg xmlns="http://www.w3.org/2000/svg" width="392.719" height="110.619" viewBox="0 0 392.719 110.619">
  <g id="LOGO_CSUBTIL" data-name="LOGO CSUBTIL" transform="translate(-3366 -1856)">
    <g id="Grupo_1" data-name="Grupo 1" transform="translate(3366 1856)">
      <path id="Trazado_1" data-name="Trazado 1" d="M235.024,175.592a13.615,13.615,0,0,1,.1,4.777,7.9,7.9,0,0,1-3.117.27c-10.57.016-21.14-.056-31.709.032A45.853,45.853,0,0,0,167.038,195.6a36.9,36.9,0,0,0-4.672,6.664c-.68,1.213-1.671,2.15-2.305,3.351a42.576,42.576,0,0,0-4.357,12.979,41.156,41.156,0,0,0-.755,8.162c.4,11.493,4.1,21.738,11.9,30.278a45.269,45.269,0,0,0,27.536,14.6,48.261,48.261,0,0,0,6.973.353c10.707.033,21.413.019,32.121.023a2.7,2.7,0,0,1,1.551.23,13.391,13.391,0,0,1,.14,4.4,1.176,1.176,0,0,1-1.032.4c-11.874-.01-23.748.039-35.62-.058a46.2,46.2,0,0,1-21.584-5.824,53.246,53.246,0,0,1-15.469-12.652,50.8,50.8,0,0,1-9.913-44.88,52.829,52.829,0,0,1,7.929-16.8,50.047,50.047,0,0,1,16.882-14.964,47.077,47.077,0,0,1,17-5.633,94.54,94.54,0,0,1,12.3-.651q13.487.025,26.974.005Z" transform="translate(-149.891 -175.586)" fill="#ff003d" fill-rule="evenodd"/>
      <path id="Trazado_2" data-name="Trazado 2" d="M607.113,257.844a13.226,13.226,0,0,1,6.061,6.741c2.875,7.381,1.253,17.876-9.062,21.251a29.268,29.268,0,0,1-8.677,1.409c-5.005.082-10.013.034-15.02.018-2.336-.007-3-.7-3-3.093q-.006-24.177,0-48.353a11.209,11.209,0,0,1,.045-1.438c.163-1.253.724-1.872,2.01-1.87,6.446.015,12.9-.248,19.335.145a16.45,16.45,0,0,1,6.658,1.951,11.681,11.681,0,0,1,6.464,8.509c.987,5.467.032,10.371-4.55,14.071A.549.549,0,0,0,607.113,257.844Zm-23.712,23.7c3.85,0,7.6-.021,11.352.01a25.027,25.027,0,0,0,5.109-.411c3.413-.68,6.4-2.048,7.931-5.457,2.96-6.6-.812-13.744-7.955-14.631-5.419-.673-10.9-.2-16.436-.256Zm-.042-26.373c3.916,0,7.678-.021,11.439.009a27.364,27.364,0,0,0,5.118-.419,7.755,7.755,0,0,0,6.5-6.973c.372-4.6-1.392-7.591-5.287-8.858a15.682,15.682,0,0,0-3.194-.721c-4.315-.456-8.64-.12-12.96-.208-.521-.01-1.1-.169-1.616.268Z" transform="translate(-401.319 -209.02)" fill="#474747" fill-rule="evenodd"/>
      <path id="Trazado_3" data-name="Trazado 3" d="M252.452,286.794a26.374,26.374,0,0,1-18.154-6.506c-2.089-1.746-1.876-3.98.516-5.279a2.311,2.311,0,0,1,2.809.528,22.2,22.2,0,0,0,21.722,4.524c4.806-1.561,7.153-5.351,6.367-10.322-.41-2.587-2.108-4.227-4.3-5.424a39.912,39.912,0,0,0-9.875-3.322,40.011,40.011,0,0,1-10.962-3.965c-5.442-3.182-8.1-7.828-7.341-14.19a12.065,12.065,0,0,1,6.829-9.649c5.6-2.917,11.562-3.121,17.632-2.047a26.8,26.8,0,0,1,11.3,5.135c.891.659,1.625,1.4,1.247,2.552a3.964,3.964,0,0,1-2.253,2.766c-.911.343-1.574-.189-2.249-.663a23.593,23.593,0,0,0-6.5-3.456,24.19,24.19,0,0,0-13.173-.606,12.824,12.824,0,0,0-3.91,1.773c-4.313,2.79-4.087,9.493-.426,12.238a24.185,24.185,0,0,0,7.773,3.61c3.927,1.179,8,1.873,11.791,3.5.629.27,1.253.55,1.869.848,6.115,2.964,8.825,7.26,8.5,13.458-.331,6.248-3.93,10.881-10.11,13.086A29.31,29.31,0,0,1,252.452,286.794Z" transform="translate(-198.689 -207.909)" fill="#474747" fill-rule="evenodd"/>
      <path id="Trazado_4" data-name="Trazado 4" d="M433.761,253.124c0,5.214.029,10.429-.008,15.642-.039,5.406-1.581,10.239-5.572,14.1a17.29,17.29,0,0,1-10.054,4.68c-5.216.687-10.284.258-14.853-2.663-4.766-3.046-7.169-7.579-7.919-13.069a41.518,41.518,0,0,1-.36-5.745c.026-9.948.01-19.9.009-29.845a12.322,12.322,0,0,1,.012-1.439,2.154,2.154,0,0,1,2.395-2.238c.2-.012.412,0,.617,0,2.316-.007,2.913.57,2.914,2.889q.006,15.129,0,30.256a39.289,39.289,0,0,0,.165,5.138c.591,4.432,2.387,8.169,6.751,10.062a15.9,15.9,0,0,0,13.162-.014c4.633-2.048,6.456-6.086,6.824-10.886.141-1.843.073-3.7.074-5.555q.009-14.3.011-28.61a4.932,4.932,0,0,1,.145-1.826,1.875,1.875,0,0,1,1.771-1.449c.479-.016.961-.02,1.44-.005,1.91.057,2.447.561,2.465,2.466.028,2.881,0,5.762,0,8.644q0,4.734,0,9.468Z" transform="translate(-294.034 -209.079)" fill="#474747" fill-rule="evenodd"/>
      <path id="Trazado_5" data-name="Trazado 5" d="M753.487,238.264a5.345,5.345,0,0,0-.149,2.22q-.017,21.917-.012,43.835c0,2.362-.719,3.041-3.075,2.985-2.078-.05-2.738-.793-2.739-3.169q-.008-21.815-.009-43.629a7.122,7.122,0,0,0-.117-2.239,3.042,3.042,0,0,0-1.8-.231q-6.173-.007-12.348,0c-.986,0-2.044.021-2.43-1.088a4.508,4.508,0,0,1,.121-3.588,1.581,1.581,0,0,1,1.354-.8c.544-.054,1.1-.028,1.645-.028h33.133c.274,0,.549.009.823,0,1.077-.039,2.147.058,2.533,1.261a3.948,3.948,0,0,1-.319,3.549c-.549.819-1.444.688-2.249.691-4.116.016-8.232,0-12.348.01A3.589,3.589,0,0,0,753.487,238.264Z" transform="translate(-491.349 -209.069)" fill="#474747" fill-rule="evenodd"/>
      <path id="Trazado_6" data-name="Trazado 6" d="M1033.616,280.963a4.169,4.169,0,0,0,2.173.245c6.588.015,13.176.006,19.765.011,2.834,0,3.832,1.317,3.15,4.08a2.174,2.174,0,0,1-1.7,1.6,4.588,4.588,0,0,1-1.227.042q-12.456,0-24.911,0c-2.325,0-3.068-.736-3.07-3.064q-.012-12.97,0-25.941,0-11.324,0-22.647c0-2.83,2.112-4.169,4.7-2.976a1.766,1.766,0,0,1,1.093,1.614c.028.754.031,1.509.031,2.264q0,21.309,0,42.618Z" transform="translate(-666.192 -208.694)" fill="#474747" fill-rule="evenodd"/>
      <path id="Trazado_7" data-name="Trazado 7" d="M914.113,259.757q0-11.733,0-23.468a12.258,12.258,0,0,1,.1-2.046,1.813,1.813,0,0,1,1.789-1.677,18.313,18.313,0,0,1,2.057-.012,1.768,1.768,0,0,1,1.8,1.644,11.611,11.611,0,0,1,.084,1.639q.006,23.879,0,47.758c0,.206,0,.412,0,.618-.018,2.427-.606,3.092-2.759,3.115-2.272.025-3.065-.735-3.07-3.075-.016-6.862-.006-13.724-.005-20.586Z" transform="translate(-599.334 -209.076)" fill="#474747" fill-rule="evenodd"/>
    </g>
    <text id="INTERACTIVITY_AS_A_SERVICE" data-name="INTERACTIVITY AS A SERVICE" transform="translate(3458 1962.619)" fill="#474747" font-size="19" font-family="ArialMT, Arial" letter-spacing="0.05em"><tspan x="0" y="0">INTERACTIVITY AS A SERVICE</tspan></text>
  </g>
</svg>
