<svg xmlns="http://www.w3.org/2000/svg" xmlns:xlink="http://www.w3.org/1999/xlink" width="724.534" height="375.115" viewBox="0 0 724.534 375.115">
  <defs>
    <clipPath id="clip-path">
      <path id="Trazado_66" data-name="Trazado 66" d="M1411.762,803.02l-81.453-251.769h56.77l56.066,177.015h.707l56.77-177.015h57.125L1474.177,803.02Z" transform="translate(-1330.309 -551.251)" fill="none"/>
    </clipPath>
    <clipPath id="clip-path-2">
      <path id="Trazado_70" data-name="Trazado 70" d="M1578.175,551.251V803.02h-55.362V551.251Z" transform="translate(-1522.813 -551.251)" fill="none"/>
    </clipPath>
    <clipPath id="clip-path-3">
      <path id="Trazado_74" data-name="Trazado 74" d="M1648.2,551.251V803.02h-55.361V551.251Z" transform="translate(-1592.843 -551.251)" fill="none"/>
    </clipPath>
  </defs>
  <g id="LOGO_TOURNOI_DE_GOLF" data-name="LOGO TOURNOI DE GOLF" transform="translate(-1275 -161.719)">
    <text id="Tournoi" transform="translate(1670.534 250.719)" fill="#4d4d4d" font-size="98" font-family="Arial-BoldMT, Arial" font-weight="700" letter-spacing="-0.05em"><tspan x="0" y="0">Tournoi</tspan></text>
    <text id="de_golf" data-name="de golf" transform="translate(1678.534 328.719)" fill="#4d4d4d" font-size="102" font-family="Arial-BoldMT, Arial" font-weight="700" letter-spacing="-0.05em"><tspan x="0" y="0">de golf</tspan></text>
    <g id="Grupo_34" data-name="Grupo 34" transform="translate(1275 186.833)">
      <g id="Grupo_27" data-name="Grupo 27" transform="translate(0 0)">
        <g id="Grupo_26" data-name="Grupo 26" clip-path="url(#clip-path)">
          <g id="Grupo_25" data-name="Grupo 25" transform="translate(-66.639 -156.624)">
            <path id="Trazado_63" data-name="Trazado 63" d="M1656.694,418.887h8.457c25.622,7.2,54.472,21.17,51.151,51.552-2.552,23.3-17.755,41.281-29.807,55.58-26.649,31.611-49.773,62.67-76.117,92.63-10.53,11.975-22.318,25.4-33.025,41.078-10.178,14.906-26.789,34.05-24.566,58,1.767,19.066,15.83,33.677,27.385,42.688,32.108,25.045,85.042,37.751,133.713,45.11,17.5,2.646,36.046-.585,54.773,2.415,3.221.511,7.543,2.642,6.445,8.459-1.762,9.328-22.135,15.688-31.013,20.539-11.585,6.327-20.485,14.748-31.815,19.328-12.634,5.108-25.887,8.109-38.666,12.491-26.552,9.1-49.848,17.206-80.147,21.344h-11.277c-59.936-4.317-108.08-25.251-145.392-51.552-43.231-30.475-71.128-93.993-59.608-169.958,10.3-67.931,59.4-98.1,97.063-138.549.247.588.485-.037,0,0,25.456-20.936,55.9-44.456,87.8-62.427,15.462-8.707,29.69-26.062,47.924-30.608C1629.131,432.233,1636.278,421.865,1656.694,418.887Z" transform="translate(-1255.556 -418.887)" fill="#b30020" fill-rule="evenodd"/>
            <path id="Trazado_64" data-name="Trazado 64" d="M1478.992,453.848c-.586.249.041.483,0,0,3.915,6.751,7.864,13.272,9.665,20.943-.583.245.04.489,0,0,15.3,44.226-24.187,59.285-43.5,80.955-35.851,40.222-61.367,86.868-72.495,155.052-.247-.58-.486.041,0,0-.534,2.158-.523,4.85-1.612,6.443-.246-.58-.487.046,0,0,.3,15.237-9.928,12.172-22.553,12.49-10.6.267-24.024,7-29-2.821.586-.249-.042-.483,0,0a76.875,76.875,0,0,1-14.5-12.886c.585-.248-.043-.487,0,0a52.081,52.081,0,0,1-8.056-9.669c.584-.248-.042-.484,0,0a117.021,117.021,0,0,1-16.916-29c.586-.244-.042-.488,0,0-3.284-6.752-5.4-16.1-6.042-25.777V636.7c3.5-51.635,18.185-83.144,41.485-111.967.245.588.485-.037,0,0,1.334-1.615,2.639-3.263,4.027-4.832.246.589.486-.041,0,0a202.009,202.009,0,0,1,30.608-29c.247.589.488-.041,0,0,2.188-1.569,3.944-3.571,6.445-4.833.247.589.485-.041,0,0a196.771,196.771,0,0,1,27.386-17.722c.248.589.487-.041,0,0C1407.53,454.575,1448.727,439.113,1478.992,453.848Z" transform="translate(-1273.992 -413.575)" fill="#111e72" fill-rule="evenodd"/>
            <path id="Trazado_65" data-name="Trazado 65" d="M1555.649,712.294c.584-.244-.043-.483,0,0-23.094-21.4-.458-72.644,13.693-86.992.246.584.485-.042,0,0,5.045-10.116,9.15-13.894,21.747-14.9,16.193-1.3,24.089-22.794,35.846-27.787,3.513-1.5,5.589-4,9.665-6.448,13.253-7.942,30.175-16.005,45.914-22.55,22.048-9.176,40.888.908,55.579,6.038,19.076,6.664,15.734-28.726,38.26-16.112,11.473,6.424,17.59,38.155,20.944,57.189a128.121,128.121,0,0,1-12.887,80.955c-9.224,17.184-28.924,25.136-44.707,38.661-14.883,12.762-39.945,16.682-62.023,21.349-33.067,6.986-83.954,9.2-107.936-4.027C1560.216,732.413,1562.89,719.588,1555.649,712.294Z" transform="translate(-1224.186 -396.543)" fill="#ffc900" fill-rule="evenodd"/>
          </g>
        </g>
      </g>
      <g id="Grupo_30" data-name="Grupo 30" transform="translate(227.786 0)">
        <g id="Grupo_29" data-name="Grupo 29" clip-path="url(#clip-path-2)">
          <g id="Grupo_28" data-name="Grupo 28" transform="translate(-294.425 -156.624)">
            <path id="Trazado_67" data-name="Trazado 67" d="M1656.694,418.887h8.457c25.622,7.2,54.472,21.17,51.151,51.552-2.552,23.3-17.755,41.281-29.807,55.58-26.649,31.611-49.773,62.67-76.117,92.63-10.53,11.975-22.318,25.4-33.025,41.078-10.178,14.906-26.789,34.05-24.566,58,1.767,19.066,15.83,33.677,27.385,42.688,32.108,25.045,85.042,37.751,133.713,45.11,17.5,2.646,36.046-.585,54.773,2.415,3.221.511,7.543,2.642,6.445,8.459-1.762,9.328-22.135,15.688-31.013,20.539-11.585,6.327-20.485,14.748-31.815,19.328-12.634,5.108-25.887,8.109-38.666,12.491-26.552,9.1-49.848,17.206-80.147,21.344h-11.277c-59.936-4.317-108.08-25.251-145.392-51.552-43.231-30.475-71.128-93.993-59.608-169.958,10.3-67.931,59.4-98.1,97.063-138.549.247.588.485-.037,0,0,25.456-20.936,55.9-44.456,87.8-62.427,15.462-8.707,29.69-26.062,47.924-30.608C1629.131,432.233,1636.278,421.865,1656.694,418.887Z" transform="translate(-1255.556 -418.887)" fill="#b30020" fill-rule="evenodd"/>
            <path id="Trazado_68" data-name="Trazado 68" d="M1478.992,453.848c-.586.249.041.483,0,0,3.915,6.751,7.864,13.272,9.665,20.943-.583.245.04.489,0,0,15.3,44.226-24.187,59.285-43.5,80.955-35.851,40.222-61.367,86.868-72.495,155.052-.247-.58-.486.041,0,0-.534,2.158-.523,4.85-1.612,6.443-.246-.58-.487.046,0,0,.3,15.237-9.928,12.172-22.553,12.49-10.6.267-24.024,7-29-2.821.586-.249-.042-.483,0,0a76.875,76.875,0,0,1-14.5-12.886c.585-.248-.043-.487,0,0a52.081,52.081,0,0,1-8.056-9.669c.584-.248-.042-.484,0,0a117.021,117.021,0,0,1-16.916-29c.586-.244-.042-.488,0,0-3.284-6.752-5.4-16.1-6.042-25.777V636.7c3.5-51.635,18.185-83.144,41.485-111.967.245.588.485-.037,0,0,1.334-1.615,2.639-3.263,4.027-4.832.246.589.486-.041,0,0a202.009,202.009,0,0,1,30.608-29c.247.589.488-.041,0,0,2.188-1.569,3.944-3.571,6.445-4.833.247.589.485-.041,0,0a196.771,196.771,0,0,1,27.386-17.722c.248.589.487-.041,0,0C1407.53,454.575,1448.727,439.113,1478.992,453.848Z" transform="translate(-1273.992 -413.575)" fill="#111e72" fill-rule="evenodd"/>
            <path id="Trazado_69" data-name="Trazado 69" d="M1555.649,712.294c.584-.244-.043-.483,0,0-23.094-21.4-.458-72.644,13.693-86.992.246.584.485-.042,0,0,5.045-10.116,9.15-13.894,21.747-14.9,16.193-1.3,24.089-22.794,35.846-27.787,3.513-1.5,5.589-4,9.665-6.448,13.253-7.942,30.175-16.005,45.914-22.55,22.048-9.176,40.888.908,55.579,6.038,19.076,6.664,15.734-28.726,38.26-16.112,11.473,6.424,17.59,38.155,20.944,57.189a128.121,128.121,0,0,1-12.887,80.955c-9.224,17.184-28.924,25.136-44.707,38.661-14.883,12.762-39.945,16.682-62.023,21.349-33.067,6.986-83.954,9.2-107.936-4.027C1560.216,732.413,1562.89,719.588,1555.649,712.294Z" transform="translate(-1224.186 -396.543)" fill="#ffc900" fill-rule="evenodd"/>
          </g>
        </g>
      </g>
      <g id="Grupo_33" data-name="Grupo 33" transform="translate(310.651 0)">
        <g id="Grupo_32" data-name="Grupo 32" clip-path="url(#clip-path-3)">
          <g id="Grupo_31" data-name="Grupo 31" transform="translate(-377.29 -156.624)">
            <path id="Trazado_71" data-name="Trazado 71" d="M1656.694,418.887h8.457c25.622,7.2,54.472,21.17,51.151,51.552-2.552,23.3-17.755,41.281-29.807,55.58-26.649,31.611-49.773,62.67-76.117,92.63-10.53,11.975-22.318,25.4-33.025,41.078-10.178,14.906-26.789,34.05-24.566,58,1.767,19.066,15.83,33.677,27.385,42.688,32.108,25.045,85.042,37.751,133.713,45.11,17.5,2.646,36.046-.585,54.773,2.415,3.221.511,7.543,2.642,6.445,8.459-1.762,9.328-22.135,15.688-31.013,20.539-11.585,6.327-20.485,14.748-31.815,19.328-12.634,5.108-25.887,8.109-38.666,12.491-26.552,9.1-49.848,17.206-80.147,21.344h-11.277c-59.936-4.317-108.08-25.251-145.392-51.552-43.231-30.475-71.128-93.993-59.608-169.958,10.3-67.931,59.4-98.1,97.063-138.549.247.588.485-.037,0,0,25.456-20.936,55.9-44.456,87.8-62.427,15.462-8.707,29.69-26.062,47.924-30.608C1629.131,432.233,1636.278,421.865,1656.694,418.887Z" transform="translate(-1255.556 -418.887)" fill="#b30020" fill-rule="evenodd"/>
            <path id="Trazado_72" data-name="Trazado 72" d="M1478.992,453.848c-.586.249.041.483,0,0,3.915,6.751,7.864,13.272,9.665,20.943-.583.245.04.489,0,0,15.3,44.226-24.187,59.285-43.5,80.955-35.851,40.222-61.367,86.868-72.495,155.052-.247-.58-.486.041,0,0-.534,2.158-.523,4.85-1.612,6.443-.246-.58-.487.046,0,0,.3,15.237-9.928,12.172-22.553,12.49-10.6.267-24.024,7-29-2.821.586-.249-.042-.483,0,0a76.875,76.875,0,0,1-14.5-12.886c.585-.248-.043-.487,0,0a52.081,52.081,0,0,1-8.056-9.669c.584-.248-.042-.484,0,0a117.021,117.021,0,0,1-16.916-29c.586-.244-.042-.488,0,0-3.284-6.752-5.4-16.1-6.042-25.777V636.7c3.5-51.635,18.185-83.144,41.485-111.967.245.588.485-.037,0,0,1.334-1.615,2.639-3.263,4.027-4.832.246.589.486-.041,0,0a202.009,202.009,0,0,1,30.608-29c.247.589.488-.041,0,0,2.188-1.569,3.944-3.571,6.445-4.833.247.589.485-.041,0,0a196.771,196.771,0,0,1,27.386-17.722c.248.589.487-.041,0,0C1407.53,454.575,1448.727,439.113,1478.992,453.848Z" transform="translate(-1273.992 -413.575)" fill="#111e72" fill-rule="evenodd"/>
            <path id="Trazado_73" data-name="Trazado 73" d="M1555.649,712.294c.584-.244-.043-.483,0,0-23.094-21.4-.458-72.644,13.693-86.992.246.584.485-.042,0,0,5.045-10.116,9.15-13.894,21.747-14.9,16.193-1.3,24.089-22.794,35.846-27.787,3.513-1.5,5.589-4,9.665-6.448,13.253-7.942,30.175-16.005,45.914-22.55,22.048-9.176,40.888.908,55.579,6.038,19.076,6.664,15.734-28.726,38.26-16.112,11.473,6.424,17.59,38.155,20.944,57.189a128.121,128.121,0,0,1-12.887,80.955c-9.224,17.184-28.924,25.136-44.707,38.661-14.883,12.762-39.945,16.682-62.023,21.349-33.067,6.986-83.954,9.2-107.936-4.027C1560.216,732.413,1562.89,719.588,1555.649,712.294Z" transform="translate(-1224.186 -396.543)" fill="#ffc900" fill-rule="evenodd"/>
          </g>
        </g>
      </g>
    </g>
    <g id="Grupo_57" data-name="Grupo 57" transform="translate(-774.466 -57.281)">
      <g id="Grupo_57-2" data-name="Grupo 57" transform="translate(2444.843 393.141)">
        <path id="Trazado_29" data-name="Trazado 29" d="M384.953,30.268h1.837c5.567,1.564,11.836,4.6,11.114,11.2-.554,5.063-3.858,8.969-6.476,12.076-5.79,6.869-10.815,13.617-16.539,20.127a92.077,92.077,0,0,0-7.176,8.926c-2.212,3.239-5.821,7.4-5.338,12.6.384,4.143,3.44,7.317,5.95,9.275,6.976,5.442,18.479,8.2,29.054,9.8,3.8.575,7.832-.127,11.9.525a1.493,1.493,0,0,1,1.4,1.838c-.383,2.027-4.81,3.409-6.739,4.463-2.517,1.375-4.451,3.2-6.913,4.2-2.745,1.11-5.625,1.762-8.4,2.714-5.769,1.978-10.831,3.739-17.415,4.638h-2.45a61.825,61.825,0,0,1-31.592-11.2c-9.393-6.622-15.455-20.423-12.951-36.929,2.238-14.761,12.907-21.315,21.09-30.1.054.128.106-.008,0,0a136.793,136.793,0,0,1,19.078-13.565c3.359-1.892,6.451-5.663,10.413-6.651C378.964,33.168,380.516,30.915,384.953,30.268Z" transform="translate(-297.792 -30.268)" fill="#b30020" fill-rule="evenodd"/>
        <path id="Trazado_30" data-name="Trazado 30" d="M295.931,52.388c-.127.054.009.105,0,0a16.8,16.8,0,0,1,2.1,4.551c-.127.053.009.106,0,0,3.324,9.61-5.255,12.882-9.451,17.59-7.79,8.74-13.334,18.875-15.752,33.691-.054-.126-.106.009,0,0a4.747,4.747,0,0,1-.35,1.4c-.053-.126-.106.01,0,0,.065,3.311-2.157,2.645-4.9,2.714-2.3.058-5.22,1.522-6.3-.613.127-.054-.009-.1,0,0a16.713,16.713,0,0,1-3.15-2.8c.127-.054-.009-.106,0,0a11.33,11.33,0,0,1-1.75-2.1c.127-.054-.009-.1,0,0a25.436,25.436,0,0,1-3.675-6.3c.127-.053-.009-.106,0,0a15.728,15.728,0,0,1-1.313-5.6v-2.8c.761-11.219,3.951-18.066,9.014-24.329.053.128.106-.008,0,0,.29-.351.573-.709.875-1.05.053.128.106-.009,0,0a43.883,43.883,0,0,1,6.651-6.3c.054.128.106-.009,0,0a10.814,10.814,0,0,1,1.4-1.05c.054.128.106-.009,0,0a42.771,42.771,0,0,1,5.95-3.851c.054.128.106-.009,0,0C280.4,52.546,289.355,49.186,295.931,52.388Z" transform="translate(-251.388 -43.638)" fill="#111e72" fill-rule="evenodd"/>
        <path id="Trazado_31" data-name="Trazado 31" d="M448.773,155.117c.127-.053-.009-.1,0,0-5.018-4.65-.1-15.784,2.975-18.9.054.127.106-.009,0,0,1.1-2.2,1.988-3.019,4.726-3.238,3.518-.283,5.234-4.953,7.788-6.038a20.413,20.413,0,0,0,2.1-1.4,80.588,80.588,0,0,1,9.976-4.9c4.791-1.994,8.885.2,12.076,1.312,4.145,1.448,3.419-6.242,8.313-3.5,2.493,1.4,3.822,8.291,4.551,12.426a27.838,27.838,0,0,1-2.8,17.59c-2,3.734-6.285,5.462-9.714,8.4-3.234,2.773-8.68,3.625-13.476,4.639-7.185,1.518-18.242,2-23.453-.875C449.766,159.489,450.347,156.7,448.773,155.117Z" transform="translate(-376.752 -86.509)" fill="#ffc900" fill-rule="evenodd"/>
      </g>
      <g id="Grupo_58" data-name="Grupo 58" transform="translate(2579.031 428.608)">
        <path id="Trazado_32" data-name="Trazado 32" d="M658.617,171.048a42.174,42.174,0,0,1-9.467,1.31c-13.456,0-22.8-6.727-22.8-20.779,0-14.229,8.693-22.208,22.8-22.208a27.445,27.445,0,0,1,9.407,1.727l-.6,7.026a17.149,17.149,0,0,0-8.99-2.2c-8.573,0-13.932,6.549-13.932,15.063,0,8.455,5.239,14.825,14.11,14.825a23.179,23.179,0,0,0,9.11-1.727Z" transform="translate(-626.347 -129.371)" fill="#4d4d4d"/>
        <path id="Trazado_33" data-name="Trazado 33" d="M722.755,129.371c13.039,0,20.363,8.811,20.363,21.375s-7.2,21.612-20.363,21.612c-13.336,0-20.362-8.871-20.362-21.612S709.538,129.371,722.755,129.371Zm0,36.438c8.514,0,11.67-7.561,11.67-15.063,0-7.323-3.393-14.825-11.67-14.825s-11.67,7.5-11.67,14.825C711.086,158.248,714.241,165.809,722.755,165.809Z" transform="translate(-666.017 -129.371)" fill="#4d4d4d"/>
        <path id="Trazado_34" data-name="Trazado 34" d="M831.5,171.048a42.175,42.175,0,0,1-9.467,1.31c-13.456,0-22.8-6.727-22.8-20.779,0-14.229,8.693-22.208,22.8-22.208a27.449,27.449,0,0,1,9.407,1.727l-.6,7.026a17.149,17.149,0,0,0-8.99-2.2c-8.573,0-13.932,6.549-13.932,15.063,0,8.455,5.239,14.825,14.111,14.825a23.176,23.176,0,0,0,9.11-1.727Z" transform="translate(-716.532 -129.371)" fill="#4d4d4d"/>
        <path id="Trazado_35" data-name="Trazado 35" d="M879.5,130.865h24.53v6.549H887.84v10.241h14.825V154.2H887.84v11.67h16.313v6.549H879.5Z" transform="translate(-758.41 -130.15)" fill="#4d4d4d"/>
        <path id="Trazado_36" data-name="Trazado 36" d="M948.706,130.865h23.1v6.549H957.042v10.241h14.051V154.2H957.042v18.22h-8.336Z" transform="translate(-794.51 -130.15)" fill="#4d4d4d"/>
      </g>
    </g>
    <text id="Parrain_2020" data-name="Parrain 2020" transform="translate(1675.534 470.719)" fill="#474747" font-size="24" font-family="ArialMT, Arial"><tspan x="0" y="0">Parrain 2020</tspan></text>
    <g id="LOGO_PLADUR" data-name="LOGO PLADUR" transform="translate(1410.822 349.531)">
      <g id="Grupo_36" data-name="Grupo 36" transform="translate(341.72 143.742)">
        <path id="Trazado_75" data-name="Trazado 75" d="M398.523,156.884l.043-.263-.015-.262q-.055-.976-1.436-1.614a13.9,13.9,0,0,0-5.079-.712h-3.751l-1.232,6h5.488a9.476,9.476,0,0,0,4.018-.732,3.439,3.439,0,0,0,1.964-2.419m12.6-.038a10.109,10.109,0,0,1-5.572,7q-4.646,2.5-13.156,2.495h-6.663l-1.714,8.4H370.8l5.594-27.01h19.43q7.446,0,11.361,1.913t4.107,5.326a7.877,7.877,0,0,1-.007.863A5.141,5.141,0,0,1,411.12,156.846Z" transform="translate(-370.802 -147.729)" fill="#bfc81f"/>
        <path id="Trazado_76" data-name="Trazado 76" d="M456.425,174.739H426.1l4.831-27.011h13.279l-3.334,18.651h15.211l8.145-12.744,11.568-.018-5.288,8.638,8.172-.123-3.563-14.4h11.893l8.618,27.011H480.54l-.795-3.564h-13.21l-2.2,3.564h-7.907" transform="translate(-385.96 -147.728)" fill="#bfc81f" fill-rule="evenodd"/>
        <path id="Trazado_77" data-name="Trazado 77" d="M547.836,161.161c.089-.526.159-1,.216-1.426a7.218,7.218,0,0,0,.039-1.312,3.712,3.712,0,0,0-2.3-3.433,18.178,18.178,0,0,0-6.89-.956h-.641l-3.149,14.4h.94a15.494,15.494,0,0,0,8.015-1.762,8.243,8.243,0,0,0,3.774-5.514m13.62-.488a15.547,15.547,0,0,1-8.639,10.841q-6.521,3.225-17.368,3.226H520.983l4.961-27.01H541.8q9.29,0,14.469,2.4t5.475,7.352a14.007,14.007,0,0,1,.032,1.5A11.912,11.912,0,0,1,561.456,160.673Z" transform="translate(-411.971 -147.729)" fill="#bfc81f"/>
        <path id="Trazado_78" data-name="Trazado 78" d="M618.109,147.731,615.182,163q-1.212,6.488-6.092,9.471t-14.118,2.983q-7.742,0-11.509-1.95a7.676,7.676,0,0,1-4.332-6.9,17.03,17.03,0,0,1,.276-3.639l2.928-15.23h13.417L593.078,163.9l-.159,1.912a2.794,2.794,0,0,0,1.175,2.251c.732.526.346.788,2.137.788a5.542,5.542,0,0,0,4.114-1.35,6.97,6.97,0,0,0,1.878-3.6l3.087-16.169h12.8" transform="translate(-427.907 -147.729)" fill="#bfc81f"/>
        <path id="Trazado_79" data-name="Trazado 79" d="M657.569,156.846l.023-.563a1.889,1.889,0,0,0-1.328-1.689,7.642,7.642,0,0,0-3.255-.561h-3.852L648.1,159.4h2.939a14.653,14.653,0,0,0,4.645-.561,2.65,2.65,0,0,0,1.882-1.989m14.071-1.426a7.884,7.884,0,0,1-2.437,4.146,10.758,10.758,0,0,1-5.377,2.457c1.89.5,1.712.962,2.343,1.387a5.762,5.762,0,0,1,2.4,3.712c.025.449.414,7.617.414,7.617h-14.7l-.094-.751c-.014-.274-.028-.531-.041-.769a4.421,4.421,0,0,1,.06-.88,8.844,8.844,0,0,1,.311-2.177l.256-2.251a2.239,2.239,0,0,0-1.4-1.987,13.039,13.039,0,0,0-4.656-.6h-.987l-1.857,9.416H632.378l5.37-27.01H656.02q8.274,0,11.949,1.389t3.84,4.463a6.893,6.893,0,0,1-.008.844A5.435,5.435,0,0,1,671.64,155.421Z" transform="translate(-442.507 -147.729)" fill="#bfc81f"/>
      </g>
      <g id="Grupo_37" data-name="Grupo 37" transform="translate(264.712 133.188)">
        <path id="Trazado_80" data-name="Trazado 80" d="M271.554,157.113l3.091-23.885h20.75l-23.841,23.885" transform="translate(-266.587 -133.199)" fill="#bfc81f"/>
        <path id="Trazado_81" data-name="Trazado 81" d="M324.292,137.532l-20.849.028-30.7,29.1-2.888,16.09h20.759l3.244-18.061h11.01c7.514,0,16.719,1.306,23.407-2.459,4.529-2.55,7.566-6.081,8.323-11.3l.016-.1.02-.1a6.59,6.59,0,0,0,.14-1.29,11.972,11.972,0,0,0-.059-1.31c-.843-7.525-5.708-10.037-12.418-10.6M340.9,151.471q-1.309,9.014-10.183,14.009c-5.916,3.331-12.409,3.556-23.589,3.556h-9.634L294.662,187.3H264.712l3.277-20.091.413-2.278,31.811-31.718h1.9l22.329-.028c10.812.846,15.7,6.581,16.59,14.527a15.582,15.582,0,0,1,.083,1.727A10.263,10.263,0,0,1,340.9,151.471Z" transform="translate(-264.712 -133.188)" fill="#12422a"/>
      </g>
      <g id="Grupo_38" data-name="Grupo 38" transform="translate(573.428 139.02)">
        <path id="Trazado_82" data-name="Trazado 82" d="M690.305,143.4a3.6,3.6,0,0,1,.79-1.143,3.686,3.686,0,0,1,1.162-.761,3.64,3.64,0,0,1,4.752,1.9,3.5,3.5,0,0,1,.29,1.423,3.579,3.579,0,0,1-.29,1.448,3.686,3.686,0,0,1-.785,1.153,3.528,3.528,0,0,1-1.153.76,3.783,3.783,0,0,1-2.814,0,3.576,3.576,0,0,1-1.162-.76,3.642,3.642,0,0,1-.79-1.153,3.578,3.578,0,0,1-.29-1.448A3.5,3.5,0,0,1,690.305,143.4Zm.6,2.659a3.006,3.006,0,0,0,.63.983,2.9,2.9,0,0,0,.949.654,2.944,2.944,0,0,0,1.186.237,2.892,2.892,0,0,0,1.172-.237,2.934,2.934,0,0,0,.944-.654,3.034,3.034,0,0,0,.63-.983,3.289,3.289,0,0,0,.227-1.235,3.2,3.2,0,0,0-.227-1.211,2.942,2.942,0,0,0-1.575-1.622,2.892,2.892,0,0,0-1.172-.237,2.938,2.938,0,0,0-2.766,1.86,3.194,3.194,0,0,0-.228,1.211A3.287,3.287,0,0,0,690.9,146.061Zm2.988-3.337a1.732,1.732,0,0,1,1.119.3,1.113,1.113,0,0,1,.364.911,1.033,1.033,0,0,1-.319.838,1.44,1.44,0,0,1-.795.315l1.211,1.869h-.707l-1.153-1.821h-.7v1.821h-.658v-4.233Zm-.29,1.879c.149,0,.289-.005.421-.015a1.1,1.1,0,0,0,.354-.083.555.555,0,0,0,.247-.208.715.715,0,0,0,.092-.392.6.6,0,0,0-.083-.339.545.545,0,0,0-.213-.194.936.936,0,0,0-.3-.092,2.378,2.378,0,0,0-.334-.024h-.872V144.6Z" transform="translate(-690.015 -141.222)" fill="#12422a"/>
      </g>
    </g>
  </g>
</svg>
