<svg xmlns="http://www.w3.org/2000/svg" width="424.168" height="102" viewBox="0 0 424.168 102">
  <g id="LOGO_FAIRWAYS" data-name="LOGO FAIRWAYS" transform="translate(-103.637 -115.923)">
    <g id="Grupo_3" data-name="Grupo 3" transform="translate(103.637 121.313)">
      <g id="Grupo_2" data-name="Grupo 2">
        <path id="Trazado_8" data-name="Trazado 8" d="M106.791,142.731h7.6l.279-1.576c1.11-6.118,3.244-10.1,7.138-13.722,5.286-5,11.59-6.952,23.457-6.952a52.286,52.286,0,0,1,6.306.278l-2.784,15.484-2.224.092c-3.245,0-3.894.092-5.378.835a7.947,7.947,0,0,0-3.894,4.82l-.186.741h9.18l-3.151,18.082h-9.18l-5.657,32.08H105.585l5.655-32.08h-7.6Z" transform="translate(-103.637 -120.481)" fill="#161615"/>
        <path id="Trazado_9" data-name="Trazado 9" d="M167.3,156.316a3.177,3.177,0,0,0,.092-.928c0-1.946-1.389-2.871-4.355-2.871s-8.162,1.392-13.909,3.8l-3.708-11.587a55.8,55.8,0,0,1,5.47-2.412,62.073,62.073,0,0,1,23.457-4.823c10.847,0,16.5,3.9,16.5,11.592a33.967,33.967,0,0,1-.557,5.653l-2.873,16.138a12.259,12.259,0,0,0-.188,1.851c0,1.855.928,2.6,2.784,2.6h.464c.092,0,.464-.184,1.2-.37.092,0,.278-.092,1.02-.278l-.649,12.608a61.081,61.081,0,0,1-17.616,3.246c-5.47,0-8.437-1.855-9.458-5.654-7.788,4.355-12.517,5.839-17.617,5.839-7.88,0-13.259-4.634-13.259-11.313a18.18,18.18,0,0,1,8.719-15.947c4.634-2.779,9.641-3.893,22.343-5.283l1.853-.186Zm-1.854,10.292c-3.615.557-5.377.835-6.583,1.392-2.41.927-4.263,4.077-4.263,7.045,0,1.949,1.575,3.336,3.8,3.336a6.737,6.737,0,0,0,5.469-2.315Z" transform="translate(-98.077 -117.376)" fill="#161615"/>
        <path id="Trazado_10" data-name="Trazado 10" d="M193.644,142.588h22.715l-8.808,50.162H184.836Zm3.8-21.323h22.622l-2.873,16.689H194.477Z" transform="translate(-88.818 -120.338)" fill="#161615"/>
        <path id="Trazado_11" data-name="Trazado 11" d="M218.811,139.426h22.068l-1.484,8.9c3.986-6.212,10.012-9.737,16.691-9.737h1.852l-3.521,20.121c-1.3-.092-1.948-.186-2.69-.186-5.933,0-10.661,2.5-14.927,7.788l-4.08,23.273H210Z" transform="translate(-84.226 -117.176)" fill="#161615"/>
        <path id="Trazado_12" data-name="Trazado 12" d="M272.273,139.3l.925,25.035v1.2c0,1.206-.092,2.134-.279,4.361a26.308,26.308,0,0,1,1.671-5.566L284.6,139.3h25.313l1.113,25.035v1.2a18.839,18.839,0,0,1-.371,4.361c.65-2.32,1.3-4.361,1.764-5.566l9.731-25.035h22.441l-23.179,50.162h-26.8l-1.206-24.292v-1.392c0-.186-.093-.464-.093-.649a20.7,20.7,0,0,1,.465-4.077,25.258,25.258,0,0,1-1.484,4.819l-.464,1.3L282.1,189.459H255.4L249.834,139.3Z" transform="translate(-76.956 -117.047)" fill="#161615"/>
        <path id="Trazado_13" data-name="Trazado 13" d="M355.877,156.316a3.177,3.177,0,0,0,.092-.928c0-1.946-1.392-2.871-4.356-2.871s-8.159,1.392-13.91,3.8L334,144.729a56.552,56.552,0,0,1,5.469-2.412,62.068,62.068,0,0,1,23.457-4.823c10.849,0,16.5,3.9,16.5,11.592a33.839,33.839,0,0,1-.557,5.653L376,170.876a12.41,12.41,0,0,0-.186,1.851c0,1.855.927,2.6,2.784,2.6h.46c.093,0,.464-.184,1.206-.37.092,0,.277-.092,1.019-.278l-.649,12.608a61.066,61.066,0,0,1-17.612,3.246c-5.473,0-8.442-1.855-9.458-5.654-7.793,4.355-12.519,5.839-17.618,5.839-7.88,0-13.259-4.634-13.259-11.313a18.179,18.179,0,0,1,8.715-15.947c4.639-2.779,9.643-3.893,22.348-5.283l1.851-.186Zm-1.855,10.292c-3.614.557-5.376.835-6.583,1.392-2.408.927-4.262,4.077-4.262,7.045,0,1.949,1.576,3.336,3.8,3.336a6.743,6.743,0,0,0,5.471-2.315Z" transform="translate(-63.662 -117.376)" fill="#161615"/>
        <path id="Trazado_14" data-name="Trazado 14" d="M368.825,197.709l.743.093q3.34.279,6.4.279c6.954,0,9.365-1.577,9.365-5.934a13.137,13.137,0,0,0-.092-1.948l-8.808-50.9h23.643l1.3,28v.371a33.564,33.564,0,0,1-.465,5.84c.557-2.319.743-3.154,1.207-4.821a13.956,13.956,0,0,1,.556-1.391l10.757-28h22.529l-30.04,58.969c-2.411,4.728-4.544,7.788-6.863,9.83-4.542,3.892-10.66,5.561-21.231,5.561-4.083,0-7.14-.187-11.684-.557Z" transform="translate(-55.732 -117.047)" fill="#161615"/>
        <path id="Trazado_15" data-name="Trazado 15" d="M424.118,173.119c1.948.278,2.687.462,3.893.649q1.391.138,3.618.556a57.611,57.611,0,0,0,6.674.371c2.227,0,3.8-.741,3.8-1.949,0-.835-1.019-1.576-3.061-1.943-10.477-1.949-14.649-5.658-14.649-13.076a18.223,18.223,0,0,1,5.377-12.7c4.82-4.823,11.87-7.139,22.348-7.139a71.24,71.24,0,0,1,18.077,2.593L465.564,154.2a25.23,25.23,0,0,0-3.525-.557,42.265,42.265,0,0,0-7.324-.83c-4.356,0-6.675.83-6.675,2.222,0,.928,1.114,1.67,2.968,2.133,5.007,1.3,7.139,1.857,9.176,2.969a10.2,10.2,0,0,1,5.844,9.732c0,12.148-10.57,20.678-25.5,20.678a86.582,86.582,0,0,1-17.431-2.042,24.124,24.124,0,0,1-3.8-.927Z" transform="translate(-46.03 -117.304)" fill="#161615"/>
      </g>
    </g>
    <g id="Grupo_4" data-name="Grupo 4" transform="translate(335.547 115.923)">
      <path id="Trazado_16" data-name="Trazado 16" d="M310.952,118.05a7.536,7.536,0,0,0-3.746-.963c-3.512,0-6.173,2.843-6.173,6.6,0,3.694,2.554,6.516,5.875,6.516a7.583,7.583,0,0,0,4.172-1.232l.468.986a8.289,8.289,0,0,1-4.725,1.411c-4.044,0-7.067-3.292-7.067-7.658,0-4.411,3.171-7.791,7.343-7.791A8.8,8.8,0,0,1,311.4,117Z" transform="translate(-299.756 -115.923)" fill="#161615"/>
      <path id="Trazado_17" data-name="Trazado 17" d="M326.577,125.823a11.748,11.748,0,0,1-.128,1.88c-.4,2.328-2.3,3.649-5.172,3.649a5.416,5.416,0,0,1-4.108-1.454c-.958-.985-1.213-1.836-1.213-4.075V116.15h1.277v9.65a8.783,8.783,0,0,0,.128,1.657c.3,1.747,1.767,2.8,3.916,2.8a4.217,4.217,0,0,0,3.15-1.187c.639-.694.873-1.567.873-3.268v-9.65h1.277Z" transform="translate(-296.8 -115.882)" fill="#161615"/>
      <path id="Trazado_18" data-name="Trazado 18" d="M332.138,116.15h1.277V129.9H339.2v1.186h-7.065Z" transform="translate(-293.846 -115.882)" fill="#161615"/>
      <path id="Trazado_19" data-name="Trazado 19" d="M340.276,116.15h9.665v1.187h-4.194v13.747h-1.277V117.337h-4.193Z" transform="translate(-292.361 -115.882)" fill="#161615"/>
      <path id="Trazado_20" data-name="Trazado 20" d="M364.4,125.823a11.6,11.6,0,0,1-.129,1.88c-.4,2.328-2.3,3.649-5.172,3.649a5.411,5.411,0,0,1-4.107-1.454c-.959-.985-1.214-1.836-1.214-4.075V116.15h1.277v9.65a8.884,8.884,0,0,0,.128,1.657c.3,1.747,1.767,2.8,3.916,2.8a4.214,4.214,0,0,0,3.15-1.187c.639-.694.874-1.567.874-3.268v-9.65H364.4Z" transform="translate(-289.897 -115.882)" fill="#161615"/>
      <path id="Trazado_21" data-name="Trazado 21" d="M369.959,116.15h2.618c.809,0,1.362.022,1.767.045a3.859,3.859,0,0,1,3.725,4.03,3.879,3.879,0,0,1-3.044,3.985,2.932,2.932,0,0,1,.958.694l.532.784,3.618,4.994-1.087.76-3.958-5.619a2.445,2.445,0,0,0-1.809-1.187,17.036,17.036,0,0,0-2.043-.044v6.492h-1.277Zm1.277,1.142v6.18l1.958.044h.106c2.086,0,3.469-1.253,3.469-3.179a2.794,2.794,0,0,0-2.767-3,11.761,11.761,0,0,0-1.341-.045Z" transform="translate(-286.944 -115.882)" fill="#161615"/>
      <path id="Trazado_22" data-name="Trazado 22" d="M383.908,116.15h7.428v1.187h-6.151v5.351h5.577v1.165h-5.577V129.9h6.151v1.186h-7.428Z" transform="translate(-284.398 -115.882)" fill="#161615"/>
      <path id="Trazado_23" data-name="Trazado 23" d="M415.939,117.979a8.21,8.21,0,0,0-3.769-.9c-3.661,0-6.322,2.821-6.322,6.694,0,3.9,2.641,6.471,6.642,6.471a5.754,5.754,0,0,0,2.872-.627v-6.046h1.277v6.829a10.3,10.3,0,0,1-4.447.964,7.217,7.217,0,0,1-7.621-7.568c0-4.546,3.173-7.859,7.577-7.859a9.175,9.175,0,0,1,4.216.985Z" transform="translate(-280.627 -115.92)" fill="#161615"/>
      <path id="Trazado_24" data-name="Trazado 24" d="M428.667,115.923c4.3,0,7.3,3.18,7.3,7.747s-3,7.747-7.3,7.747-7.3-3.179-7.3-7.747S424.367,115.923,428.667,115.923ZM422.6,123.67c0,3.851,2.554,6.65,6.066,6.65s6.067-2.8,6.067-6.65-2.577-6.649-6.067-6.649C425.155,117.02,422.6,119.818,422.6,123.67Z" transform="translate(-277.563 -115.923)" fill="#161615"/>
      <path id="Trazado_25" data-name="Trazado 25" d="M440.518,116.15H441.8V129.9h5.788v1.186h-7.065Z" transform="translate(-274.067 -115.882)" fill="#161615"/>
      <path id="Trazado_26" data-name="Trazado 26" d="M451.857,116.15h7.43v1.187h-6.152v5.351h5.577v1.187h-5.577v7.209h-1.277Z" transform="translate(-271.998 -115.882)" fill="#161615"/>
    </g>
  </g>
</svg>
