<svg xmlns="http://www.w3.org/2000/svg" width="341.679" height="104.529" viewBox="0 0 341.679 104.529">
  <g id="LOGO_COCEF" data-name="LOGO COCEF" transform="translate(-42.255 -24.284)">
    <g id="Grupo_9" data-name="Grupo 9" transform="translate(42.255 24.284)">
      <g id="Grupo_8" data-name="Grupo 8">
        <g id="Grupo_7" data-name="Grupo 7">
          <g id="Grupo_6" data-name="Grupo 6">
            <path id="Trazado_27" data-name="Trazado 27" d="M94.668,27.131l-.4-.2A36.266,36.266,0,0,0,80.5,24.284c-21.444,0-38.241,16.644-38.241,37.886A37.361,37.361,0,0,0,79.748,99.311a39.369,39.369,0,0,0,14.49-2.895l.443-.157,0-.519,0-9.468,0-1.348-1.16.692a27.99,27.99,0,0,1-14.04,4.118c-14.834,0-26.907-12.488-26.907-27.84,0-15.457,12.152-28.026,27.1-28.026A26.888,26.888,0,0,1,93.52,37.5l1.141.653Z" transform="translate(-42.255 -24.284)" fill="#b30020"/>
          </g>
        </g>
      </g>
      <path id="Trazado_28" data-name="Trazado 28" d="M132.448,103.864c-2.367,6.755-8.245,11.317-15.437,11.317-9.651,0-19.741-7.633-19.741-17.895,0-10.793,9.652-18.684,20-18.684,9.649,0,13.86,6.14,13.86,9.559a5.967,5.967,0,1,1-11.932,0,5.159,5.159,0,0,1,1.493-3.419,2.464,2.464,0,0,0,1.139-1.932c0-1.755-3.247-1.931-4.647-1.931-3.86,0-6.494,1.053-6.494,9.388v11.318c0,9.033,1.14,11.313,6.755,11.313,6.844,0,10.438-3.945,13.071-10.089Z" transform="translate(-77.582 -59.163)" fill="#ffc900"/>
    </g>
    <g id="Grupo_10" data-name="Grupo 10" transform="translate(117.098 26.426)">
      <path id="Trazado_29" data-name="Trazado 29" d="M384.953,30.268h1.837c5.567,1.564,11.836,4.6,11.114,11.2-.554,5.063-3.858,8.969-6.476,12.076-5.79,6.869-10.815,13.617-16.539,20.127a92.077,92.077,0,0,0-7.176,8.926c-2.212,3.239-5.821,7.4-5.338,12.6.384,4.143,3.44,7.317,5.95,9.275,6.976,5.442,18.479,8.2,29.054,9.8,3.8.575,7.832-.127,11.9.525a1.493,1.493,0,0,1,1.4,1.838c-.383,2.027-4.81,3.409-6.739,4.463-2.517,1.375-4.451,3.2-6.913,4.2-2.745,1.11-5.625,1.762-8.4,2.714-5.769,1.978-10.831,3.739-17.415,4.638h-2.45a61.825,61.825,0,0,1-31.592-11.2c-9.393-6.622-15.455-20.423-12.951-36.929,2.238-14.761,12.907-21.315,21.09-30.1.054.128.106-.008,0,0a136.793,136.793,0,0,1,19.078-13.565c3.359-1.892,6.451-5.663,10.413-6.651C378.964,33.168,380.516,30.915,384.953,30.268Z" transform="translate(-297.792 -30.268)" fill="#b30020" fill-rule="evenodd"/>
      <path id="Trazado_30" data-name="Trazado 30" d="M295.931,52.388c-.127.054.009.105,0,0a16.8,16.8,0,0,1,2.1,4.551c-.127.053.009.106,0,0,3.324,9.61-5.255,12.882-9.451,17.59-7.79,8.74-13.334,18.875-15.752,33.691-.054-.126-.106.009,0,0a4.747,4.747,0,0,1-.35,1.4c-.053-.126-.106.01,0,0,.065,3.311-2.157,2.645-4.9,2.714-2.3.058-5.22,1.522-6.3-.613.127-.054-.009-.1,0,0a16.713,16.713,0,0,1-3.15-2.8c.127-.054-.009-.106,0,0a11.33,11.33,0,0,1-1.75-2.1c.127-.054-.009-.1,0,0a25.436,25.436,0,0,1-3.675-6.3c.127-.053-.009-.106,0,0a15.728,15.728,0,0,1-1.313-5.6v-2.8c.761-11.219,3.951-18.066,9.014-24.329.053.128.106-.008,0,0,.29-.351.573-.709.875-1.05.053.128.106-.009,0,0a43.883,43.883,0,0,1,6.651-6.3c.054.128.106-.009,0,0a10.814,10.814,0,0,1,1.4-1.05c.054.128.106-.009,0,0a42.771,42.771,0,0,1,5.95-3.851c.054.128.106-.009,0,0C280.4,52.546,289.355,49.186,295.931,52.388Z" transform="translate(-251.388 -43.638)" fill="#111e72" fill-rule="evenodd"/>
      <path id="Trazado_31" data-name="Trazado 31" d="M448.773,155.117c.127-.053-.009-.1,0,0-5.018-4.65-.1-15.784,2.975-18.9.054.127.106-.009,0,0,1.1-2.2,1.988-3.019,4.726-3.238,3.518-.283,5.234-4.953,7.788-6.038a20.413,20.413,0,0,0,2.1-1.4,80.588,80.588,0,0,1,9.976-4.9c4.791-1.994,8.885.2,12.076,1.312,4.145,1.448,3.419-6.242,8.313-3.5,2.493,1.4,3.822,8.291,4.551,12.426a27.838,27.838,0,0,1-2.8,17.59c-2,3.734-6.285,5.462-9.714,8.4-3.234,2.773-8.68,3.625-13.476,4.639-7.185,1.518-18.242,2-23.453-.875C449.766,159.489,450.347,156.7,448.773,155.117Z" transform="translate(-376.752 -86.509)" fill="#ffc900" fill-rule="evenodd"/>
    </g>
    <g id="Grupo_11" data-name="Grupo 11" transform="translate(251.287 61.892)">
      <path id="Trazado_32" data-name="Trazado 32" d="M650.491,160.553a31.554,31.554,0,0,1-7.083.98c-10.067,0-17.061-5.033-17.061-15.546,0-10.645,6.5-16.615,17.061-16.615a20.533,20.533,0,0,1,7.038,1.292L650,135.919a12.831,12.831,0,0,0-6.726-1.648c-6.414,0-10.423,4.9-10.423,11.269,0,6.326,3.92,11.092,10.557,11.092a17.341,17.341,0,0,0,6.816-1.292Z" transform="translate(-626.347 -129.371)" fill="#161615"/>
      <path id="Trazado_33" data-name="Trazado 33" d="M717.627,129.371c9.756,0,15.235,6.592,15.235,15.992s-5.39,16.169-15.235,16.169c-9.978,0-15.234-6.637-15.234-16.169S707.739,129.371,717.627,129.371Zm0,27.262c6.37,0,8.731-5.657,8.731-11.27,0-5.479-2.539-11.091-8.731-11.091s-8.731,5.613-8.731,11.091C708.9,150.976,711.258,156.633,717.627,156.633Z" transform="translate(-675.178 -129.371)" fill="#161615"/>
      <path id="Trazado_34" data-name="Trazado 34" d="M823.369,160.553a31.555,31.555,0,0,1-7.083.98c-10.067,0-17.061-5.033-17.061-15.546,0-10.645,6.5-16.615,17.061-16.615a20.536,20.536,0,0,1,7.038,1.292l-.446,5.256a12.831,12.831,0,0,0-6.726-1.648c-6.414,0-10.424,4.9-10.424,11.269,0,6.326,3.92,11.092,10.557,11.092a17.339,17.339,0,0,0,6.816-1.292Z" transform="translate(-737.357 -129.371)" fill="#161615"/>
      <path id="Trazado_35" data-name="Trazado 35" d="M879.5,130.865h18.353v4.9H885.74v7.662h11.092v4.9H885.74v8.731h12.2v4.9H879.5Z" transform="translate(-788.906 -130.33)" fill="#161615"/>
      <path id="Trazado_36" data-name="Trazado 36" d="M948.706,130.865h17.283v4.9H954.942v7.662h10.513v4.9H954.942v13.631h-6.236Z" transform="translate(-833.342 -130.33)" fill="#161615"/>
    </g>
    <g id="Grupo_13" data-name="Grupo 13" transform="translate(47.365 103.985)">
      <g id="Grupo_12" data-name="Grupo 12">
        <path id="Trazado_37" data-name="Trazado 37" d="M63.112,247.33v3.9c1.306,0,2-.2,2.067-1.659h.381v3.794h-.381c-.122-1.51-.6-1.836-2.067-1.8v4.161h1.931c1.768,0,2.149-1.047,2.434-2.584h.394l-.122,2.923H60.012v-.34h1.36v-8.4h-1.36v-.34h7.519l.082,2.448h-.381c-.285-1.305-.8-1.809-1.5-2a4.49,4.49,0,0,0-1.183-.109Z" transform="translate(-58.768 -246.99)" fill="#161615"/>
        <path id="Trazado_38" data-name="Trazado 38" d="M86.221,262.563H86v-1.945h.367c.136.966.694,1.877,1.727,1.877a1.169,1.169,0,0,0,1.237-1.088c0-.68-.625-.748-1.332-.843-1.4-.19-1.931-.762-1.931-1.809a1.585,1.585,0,0,1,1.713-1.658,2.233,2.233,0,0,1,1.333.435l.217-.354h.232v1.6h-.354a1.533,1.533,0,0,0-1.428-1.414,1,1,0,0,0-1.1.938c0,.408.068.557,1.292.761s1.944.422,1.944,1.822a1.7,1.7,0,0,1-1.944,1.876,2.223,2.223,0,0,1-1.36-.571Z" transform="translate(-75.457 -253.48)" fill="#161615"/>
        <path id="Trazado_39" data-name="Trazado 39" d="M101.916,258.225h.027a1.94,1.94,0,0,1,1.672-1.128,2.717,2.717,0,0,1,2.543,2.814,2.8,2.8,0,0,1-2.543,2.855,1.7,1.7,0,0,1-1.672-.966h-.027v3.6h.952v.34h-3.4v-.34h.979v-7.886h-.992v-.34c.8.027,1.632-.027,2.461-.054Zm2.624.326c0-.734-.2-1.183-1.034-1.183a1.949,1.949,0,0,0-1.591,1.564V260.7a1.717,1.717,0,0,0,1.564,1.795.935.935,0,0,0,1.061-1.033Z" transform="translate(-84.095 -253.48)" fill="#161615"/>
        <path id="Trazado_40" data-name="Trazado 40" d="M125.274,257.858c0-.354-.666-.49-.9-.49-.517,0-1.156.258-.952.517a1.282,1.282,0,0,1,.19.653.642.642,0,0,1-.652.6.633.633,0,0,1-.708-.639c0-1.034,1.333-1.4,2.162-1.4a3.855,3.855,0,0,1,1.74.367.788.788,0,0,1,.5.83v3.617c0,.176.163.258.326.258s.367-.2.476-.313l.163.19a1.591,1.591,0,0,1-1.292.72,1.016,1.016,0,0,1-1.061-.966,2.6,2.6,0,0,1-1.985.966,1.268,1.268,0,0,1-1.414-1.319c0-1.618,2.176-1.958,3.4-1.89Zm0,1.985c-.843,0-1.972.108-1.972,1.21,0,.6.245,1.047.884,1.047a1.114,1.114,0,0,0,.992-.8,1.938,1.938,0,0,0,.1-.707Z" transform="translate(-98.491 -253.48)" fill="#161615"/>
        <path id="Trazado_41" data-name="Trazado 41" d="M142.215,253.376h.027a2.118,2.118,0,0,1,2.026-1.305c1.808,0,1.659,1.264,1.659,2.611V257.2h.857v.34h-3.154v-.34h.856v-2.448c0-1.264.136-2.189-.775-2.189-.584,0-1.115.626-1.319,1.129a5.068,5.068,0,0,0-.177,1.713V257.2h.856v.34h-3.222v-.34h.925v-4.7h-.925v-.34c.694.027,1.523-.027,2.366-.054Zm3.427-4.106c-.191.789-.612,1.523-1.523,1.523a2.65,2.65,0,0,1-1.074-.326,2.4,2.4,0,0,0-.87-.326.759.759,0,0,0-.734.666h-.449a1.6,1.6,0,0,1,1.51-1.5,2.425,2.425,0,0,1,1.047.326,2.422,2.422,0,0,0,.938.326c.367,0,.612-.38.694-.693Z" transform="translate(-110.033 -248.454)" fill="#161615"/>
        <path id="Trazado_42" data-name="Trazado 42" d="M165.4,257.858c0-.354-.666-.49-.9-.49-.517,0-1.156.258-.952.517a1.282,1.282,0,0,1,.19.653.643.643,0,0,1-.653.6.632.632,0,0,1-.707-.639c0-1.034,1.333-1.4,2.162-1.4a3.855,3.855,0,0,1,1.74.367.788.788,0,0,1,.5.83v3.617c0,.176.163.258.326.258s.367-.2.476-.313l.163.19a1.591,1.591,0,0,1-1.292.72,1.016,1.016,0,0,1-1.061-.966,2.6,2.6,0,0,1-1.985.966A1.268,1.268,0,0,1,162,261.448c0-1.618,2.176-1.958,3.4-1.89Zm0,1.985c-.843,0-1.972.108-1.972,1.21,0,.6.245,1.047.884,1.047a1.115,1.115,0,0,0,.992-.8,1.939,1.939,0,0,0,.1-.707Z" transform="translate(-124.259 -253.48)" fill="#161615"/>
        <path id="Trazado_43" data-name="Trazado 43" d="M57.881,289.33H56.535v-.34h7.533l.1,2.774H63.8c-.19-.9-.394-1.849-1.292-2.257a3.94,3.94,0,0,0-1.4-.177H59.622v3.9c1.306,0,2-.2,2.067-1.659h.381v3.794h-.381c-.122-1.509-.6-1.836-2.067-1.8v4.161h1.346v.34H56.535v-.34h1.346Z" transform="translate(-56.535 -273.959)" fill="#161615"/>
        <path id="Trazado_44" data-name="Trazado 44" d="M82.309,300.633c.435-.748.911-1.536,1.9-1.536.53,0,1.088.272,1.088.884,0,.53-.367.761-.857.761a.666.666,0,0,1-.653-.625,1.206,1.206,0,0,1,.027-.2c.041-.217.054-.3-.1-.3a.764.764,0,0,0-.571.313c-.517.516-.843,1.251-.843,3.032v1.264h1.224v.34H80.038v-.34h.8v-4.7h-.9v-.34c.707.027,1.536-.027,2.366-.054Z" transform="translate(-71.566 -280.449)" fill="#161615"/>
        <path id="Trazado_45" data-name="Trazado 45" d="M100.974,299.858c0-.354-.666-.49-.9-.49-.516,0-1.156.258-.952.517a1.281,1.281,0,0,1,.19.653.642.642,0,0,1-.653.6.632.632,0,0,1-.707-.639c0-1.034,1.333-1.4,2.162-1.4a3.855,3.855,0,0,1,1.74.367.788.788,0,0,1,.5.83v3.617c0,.176.163.258.326.258s.367-.2.476-.313l.163.19a1.591,1.591,0,0,1-1.292.72,1.016,1.016,0,0,1-1.061-.966,2.6,2.6,0,0,1-1.985.966,1.268,1.268,0,0,1-1.414-1.319c0-1.618,2.176-1.958,3.4-1.89Zm0,1.985c-.843,0-1.972.108-1.972,1.21,0,.6.245,1.047.884,1.047a1.115,1.115,0,0,0,.992-.8,1.938,1.938,0,0,0,.1-.707Z" transform="translate(-82.888 -280.449)" fill="#161615"/>
        <path id="Trazado_46" data-name="Trazado 46" d="M117.915,300.4h.027a2.118,2.118,0,0,1,2.026-1.305c1.808,0,1.659,1.264,1.659,2.611v2.515h.857v.34h-3.155v-.34h.857v-2.448c0-1.264.136-2.189-.775-2.189-.585,0-1.115.626-1.319,1.129a5.068,5.068,0,0,0-.177,1.713v1.795h.856v.34h-3.222v-.34h.924v-4.7h-.924v-.34c.693.027,1.523-.027,2.366-.054Z" transform="translate(-94.429 -280.449)" fill="#161615"/>
        <path id="Trazado_47" data-name="Trazado 47" d="M138.87,302.768c0,1.292.3,1.727,1.2,1.727a1.942,1.942,0,0,0,1.876-1.632h.313a2.2,2.2,0,0,1-2.271,1.9,2.694,2.694,0,0,1-2.706-2.951,3.169,3.169,0,0,1,.911-2.026,2.737,2.737,0,0,1,1.917-.693c.816,0,2.026.367,2.026,1.387a.772.772,0,0,1-.68.789c-.422,0-.843-.177-.843-.694,0-.408.422-.489.422-.734,0-.381-.734-.476-.952-.476-1.319,0-1.21,1.346-1.21,2.312Z" transform="translate(-108.381 -280.449)" fill="#161615"/>
        <path id="Trazado_48" data-name="Trazado 48" d="M153.13,298.8v-.34h.992v-4.7h-.992v-.34c.8.027,1.632-.027,2.461-.054v5.1H156.6v.34Zm1.618-7.125a.8.8,0,0,1-.734-.816.789.789,0,0,1,.734-.734.8.8,0,0,1,.8.734A.79.79,0,0,1,154.748,291.68Z" transform="translate(-118.561 -274.691)" fill="#161615"/>
        <path id="Trazado_49" data-name="Trazado 49" d="M168.537,299.858c0-.354-.666-.49-.9-.49-.516,0-1.156.258-.952.517a1.281,1.281,0,0,1,.19.653.642.642,0,0,1-.653.6.632.632,0,0,1-.707-.639c0-1.034,1.333-1.4,2.162-1.4a3.855,3.855,0,0,1,1.74.367.788.788,0,0,1,.5.83v3.617c0,.176.163.258.326.258s.367-.2.476-.313l.163.19a1.591,1.591,0,0,1-1.292.72,1.016,1.016,0,0,1-1.061-.966,2.6,2.6,0,0,1-1.985.966,1.268,1.268,0,0,1-1.414-1.319c0-1.618,2.176-1.958,3.4-1.89Zm0,1.985c-.843,0-1.972.108-1.972,1.21,0,.6.245,1.047.884,1.047a1.115,1.115,0,0,0,.992-.8,1.938,1.938,0,0,0,.1-.707Z" transform="translate(-126.272 -280.449)" fill="#161615"/>
      </g>
      <path id="Trazado_50" data-name="Trazado 50" d="M162.659,286" transform="translate(-124.68 -272.039)" fill="none" stroke="#b30020" stroke-miterlimit="10" stroke-width="1"/>
    </g>
    <rect id="Rect치ngulo_6" data-name="Rect치ngulo 6" width="0.812" height="101.439" transform="translate(107.457 26.428)" fill="#b30020"/>
    <rect id="Rect치ngulo_7" data-name="Rect치ngulo 7" width="0.507" height="27.39" transform="translate(85.514 117.688) rotate(90)" fill="#b30020"/>
  </g>
</svg>
