<svg xmlns="http://www.w3.org/2000/svg" width="205.941" height="130.645" viewBox="0 0 205.941 130.645">
  <g id="LOGO_M_B" data-name="LOGO M&amp;B" transform="translate(-480.561 -306.598)">
    <g id="Grupo_41" data-name="Grupo 41" transform="translate(482.055 306.598)">
      <g id="Grupo_40" data-name="Grupo 40">
        <path id="Trazado_83" data-name="Trazado 83" d="M600.335,308.291a20.693,20.693,0,0,0-6.225,1.141,11.747,11.747,0,0,0-4.32,3.055,10.459,10.459,0,0,0-2.245,3.424,17.382,17.382,0,0,0-1.021,4.748,74.424,74.424,0,0,0-.476,9.055v54.256a56.648,56.648,0,0,0,.816,11.264,12.114,12.114,0,0,0,2.925,5.889q3.74,3.9,10.544,4.27v1.693H556.865v-1.693a19.961,19.961,0,0,0,6.361-1.215,12.145,12.145,0,0,0,4.32-3.055,12.856,12.856,0,0,0,2.891-6,57.971,57.971,0,0,0,.782-11.153V318.156l-35.033,88.929h-1.429l-34.829-87.6v64.488a57.817,57.817,0,0,0,.782,11.19,12.808,12.808,0,0,0,2.891,5.963,11.376,11.376,0,0,0,4.32,3.092,20.57,20.57,0,0,0,6.293,1.178v1.693h-31.36v-1.693a20.574,20.574,0,0,0,6.293-1.178,11.4,11.4,0,0,0,4.32-3.092,12.849,12.849,0,0,0,2.891-6,57.907,57.907,0,0,0,.783-11.153V329.713q0-3.384-.2-6.4-.341-5.446-1.564-7.951a11.423,11.423,0,0,0-4.66-5.116,18.388,18.388,0,0,0-7.857-1.951V306.6h29.524l29.455,78.7,30.544-78.7h27.959Z" transform="translate(-482.853 -306.598)" fill="#216b27"/>
      </g>
    </g>
    <g id="Grupo_43" data-name="Grupo 43" transform="translate(594.68 306.598)">
      <g id="Grupo_42" data-name="Grupo 42" transform="translate(0)">
        <path id="Trazado_84" data-name="Trazado 84" d="M655.662,407.084v-1.693a23.464,23.464,0,0,0,6.929-1.215,12.587,12.587,0,0,0,4.632-3.055,11.879,11.879,0,0,0,3.186-5.963,55.515,55.515,0,0,0,.815-11.19V329.713a55.542,55.542,0,0,0-.815-11.19,12.615,12.615,0,0,0-7.855-9.055,24.675,24.675,0,0,0-6.892-1.178V306.6h48.69q7.41,0,9.708.147c5.632.442,12.292,1.541,15.854,3.976,9.213,6.3,11.525,13.231,11.926,18.477.491,6.412-2,13.737-6,17.861a19.767,19.767,0,0,1-4.891,3.791,56.162,56.162,0,0,1-7.93,3.35c4.743.786,4.728,1.645,7.348,2.577a25.042,25.042,0,0,1,7.114,3.9,26.13,26.13,0,0,1,7.374,9.534c1.753,3.8,2.631,5.882,2.631,10.3a27.651,27.651,0,0,1-2.7,12.257,23.03,23.03,0,0,1-7.522,8.944,27.267,27.267,0,0,1-10.413,4.2,94.11,94.11,0,0,1-17.008,1.178Zm31.793-98.2v45.76h6a67.53,67.53,0,0,0,8.745-.589,38.167,38.167,0,0,0,6.336-1.4,17.213,17.213,0,0,0,4.41-2.209,18.453,18.453,0,0,0,5.818-7.178c1.358-2.919,2.038-8.179,2.038-11.712a27.251,27.251,0,0,0-2.113-10.638,19.424,19.424,0,0,0-5.594-7.84,16.961,16.961,0,0,0-6.929-3.313,57.931,57.931,0,0,0-11.82-.883Zm0,48.042v28.3a41.167,41.167,0,0,0,.778,8.908,14.96,14.96,0,0,0,2.557,5.742q3.779,4.933,12.97,4.932,11.931,0,18.861-6.478t6.929-17.669c0-4.27-.717-6.2-2.149-9.857a19.921,19.921,0,0,0-5.78-8.429q-6.671-5.446-20.9-5.448Z" transform="translate(-655.662 -306.598)" fill="#216b27"/>
      </g>
    </g>
    <g id="Grupo_44" data-name="Grupo 44" transform="translate(524.933 418.105)">
      <path id="Trazado_85" data-name="Trazado 85" d="M568.861,496.58h-9.092v-.318a4.181,4.181,0,0,0,1.716-.415,1.681,1.681,0,0,0,.858-1.494,4.362,4.362,0,0,0-.387-1.522l-.236-.581-1.328-3.265H554.3l-.72,1.909-.346.858a6.849,6.849,0,0,0-.622,2.394,2.057,2.057,0,0,0,.228.955,1.987,1.987,0,0,0,.616.72,2.787,2.787,0,0,0,1.384.443v.318h-6.2v-.318a2.882,2.882,0,0,0,1.287-.36,3.715,3.715,0,0,0,1.079-1.024,7.846,7.846,0,0,0,.865-1.461q.422-.893,1.114-2.677l5.065-13.049h.789l6.019,14.543a22.894,22.894,0,0,0,1.079,2.352,3.477,3.477,0,0,0,.872,1.066,2.44,2.44,0,0,0,.761.381,7.6,7.6,0,0,0,1.287.229Zm-8.69-8.164-2.905-7.168-2.741,7.168Z" transform="translate(-548.644 -477.691)" fill="#216b27"/>
      <path id="Trazado_86" data-name="Trazado 86" d="M583.27,488.626h5.368v.3a2.468,2.468,0,0,0-.83.276.965.965,0,0,0-.443.884,3.3,3.3,0,0,0,.138.871q.138.5.509,1.451l2.231,5.68,2.256-5.915a6.223,6.223,0,0,0,.5-1.949,1.174,1.174,0,0,0-.429-1.009,2.222,2.222,0,0,0-.817-.29v-.3h3.819v.3a2.5,2.5,0,0,0-1.245.691,8.75,8.75,0,0,0-1.37,2.612l-3.2,8.154h-.748l-3.473-8.57a12.172,12.172,0,0,0-1.148-2.391,1.248,1.248,0,0,0-.43-.325,2.915,2.915,0,0,0-.691-.172Z" transform="translate(-560.703 -481.499)" fill="#216b27"/>
      <path id="Trazado_87" data-name="Trazado 87" d="M607.215,494.437a5.667,5.667,0,0,1,1.661-4,6.522,6.522,0,0,1,9.645,0,5.7,5.7,0,0,1,.083,7.956,6.712,6.712,0,0,1-9.811,0,6.009,6.009,0,0,1-1.169-1.854A5.626,5.626,0,0,1,607.215,494.437Zm2.519-.159a7.36,7.36,0,0,0,1.079,4.077,3.518,3.518,0,0,0,2.975,1.866,2.834,2.834,0,0,0,1.453-.415,3.834,3.834,0,0,0,1.218-1.161,6.47,6.47,0,0,0,.871-1.942,8.243,8.243,0,0,0,.332-2.26,7.814,7.814,0,0,0-.353-2.288,6.789,6.789,0,0,0-.948-1.984,3.351,3.351,0,0,0-2.782-1.562,3.253,3.253,0,0,0-2.7,1.645A6.848,6.848,0,0,0,609.734,494.278Z" transform="translate(-569.042 -481.388)" fill="#216b27"/>
      <path id="Trazado_88" data-name="Trazado 88" d="M643.949,497.661l.277.1a3.85,3.85,0,0,1-1.481,2.117,4.968,4.968,0,0,1-2.74.65,5.519,5.519,0,0,1-5.936-5.784,7.072,7.072,0,0,1,.429-2.408,6.217,6.217,0,0,1,1.176-2.034,5.533,5.533,0,0,1,2.069-1.48,6.871,6.871,0,0,1,2.678-.512,4.933,4.933,0,0,1,3.141.9,1.565,1.565,0,0,1,.692,1.217,1.015,1.015,0,0,1-.291.74.948.948,0,0,1-.706.3q-.9,0-1.328-1.315a5.824,5.824,0,0,0-.311-.83,1.172,1.172,0,0,0-.338-.387,1.708,1.708,0,0,0-1.049-.319,2.674,2.674,0,0,0-1.5.457,3.809,3.809,0,0,0-1.028,1,6.218,6.218,0,0,0-.739,1.515,8.36,8.36,0,0,0-.483,2.74,6.792,6.792,0,0,0,.443,2.408,5.64,5.64,0,0,0,1.2,1.965,3.733,3.733,0,0,0,2.789,1.245,3.028,3.028,0,0,0,2.2-.844A4.372,4.372,0,0,0,643.949,497.661Z" transform="translate(-578.395 -481.388)" fill="#216b27"/>
      <path id="Trazado_89" data-name="Trazado 89" d="M667.882,498.934l.236.138a2.146,2.146,0,0,1-2.284,1.453,2.661,2.661,0,0,1-1.635-.484,3.659,3.659,0,0,1-.887-1.107,9.226,9.226,0,0,1-1.4,1.094,4.26,4.26,0,0,1-2.093.5,3.7,3.7,0,0,1-2.418-.733,2.425,2.425,0,0,1-.894-1.979,2.69,2.69,0,0,1,.734-1.924,3.249,3.249,0,0,1,.955-.684,9.128,9.128,0,0,1,1.563-.519q1.2-.3,1.778-.512a3.682,3.682,0,0,0,.962-.5,1.66,1.66,0,0,0,.609-.748,3.4,3.4,0,0,0,.166-1.19,3.724,3.724,0,0,0-.609-2.366,1.99,1.99,0,0,0-.712-.553,2.082,2.082,0,0,0-.907-.208,1.8,1.8,0,0,0-1.011.291,1.775,1.775,0,0,0-.663.8l-.346.8a1,1,0,0,1-1,.65,1.084,1.084,0,0,1-.789-.312,1.047,1.047,0,0,1-.319-.781q0-.707,1-1.19a6.06,6.06,0,0,1,1.337-.409,7.987,7.987,0,0,1,1.56-.159,7.758,7.758,0,0,1,1.788.221,6.164,6.164,0,0,1,1.552.568,2.2,2.2,0,0,1,1.122,1.328,6.11,6.11,0,0,1,.111,1.4v5.12a9.207,9.207,0,0,0,.111,1.771,1.1,1.1,0,0,0,1.135.983,1.267,1.267,0,0,0,.672-.152A2.4,2.4,0,0,0,667.882,498.934Zm-4.58-5.452a9.265,9.265,0,0,1-1.641,1.093,14.417,14.417,0,0,0-1.393.817,3.668,3.668,0,0,0-.7.664,2.888,2.888,0,0,0-.648,1.868,2.253,2.253,0,0,0,.5,1.509,1.6,1.6,0,0,0,1.276.6,2.183,2.183,0,0,0,1.276-.422,2.612,2.612,0,0,0,.9-1.128,6.628,6.628,0,0,0,.428-2.684Z" transform="translate(-586.209 -481.388)" fill="#216b27"/>
      <path id="Trazado_90" data-name="Trazado 90" d="M682.275,486.7h3.515v.526h-3.515v8.053a3.373,3.373,0,0,0,.5,2.076,1.767,1.767,0,0,0,.69.54,2.215,2.215,0,0,0,.924.194,1.932,1.932,0,0,0,1.034-.256,3.56,3.56,0,0,0,.91-.935l.207.181a2.874,2.874,0,0,1-1.281,1.231,4.669,4.669,0,0,1-2.054.4,3.638,3.638,0,0,1-2.381-.637,1.539,1.539,0,0,1-.525-.8,7.45,7.45,0,0,1-.125-1.667v-8.385h-1.48v-.222a3.9,3.9,0,0,0,1.662-1.121,5.582,5.582,0,0,0,.738-1.017,7.179,7.179,0,0,0,.529-1.308l.139-.457h.516Z" transform="translate(-593.935 -479.577)" fill="#216b27"/>
      <path id="Trazado_91" data-name="Trazado 91" d="M695.779,500.277v-3.916H696a7.652,7.652,0,0,0,.966,2.3,3.014,3.014,0,0,0,2.485,1.564,2.284,2.284,0,0,0,1.5-.526,2.033,2.033,0,0,0,.691-1.646,2.437,2.437,0,0,0-.5-1.522,3.228,3.228,0,0,0-.7-.637,15.91,15.91,0,0,0-1.415-.817,9.586,9.586,0,0,1-2.319-1.549,2.907,2.907,0,0,1-.828-2.048,3.054,3.054,0,0,1,.83-2.145,3.3,3.3,0,0,1,2.532-1.024,3.448,3.448,0,0,1,1.315.249l.471.208a1.128,1.128,0,0,0,.388.083q.262,0,.5-.415h.276l.153,3.141h-.291a6.346,6.346,0,0,0-.325-1.065,3.036,3.036,0,0,0-.489-.775,3.194,3.194,0,0,0-.993-.824,2.4,2.4,0,0,0-1.118-.3,1.771,1.771,0,0,0-1.318.56,1.9,1.9,0,0,0-.545,1.377,1.792,1.792,0,0,0,.49,1.225,4.464,4.464,0,0,0,1.512,1l1.463.665a4.83,4.83,0,0,1,1.96,1.48,3.439,3.439,0,0,1,.649,2.089,3.287,3.287,0,0,1-.941,2.408,3.7,3.7,0,0,1-2.767,1.107,5.167,5.167,0,0,1-1.854-.36c-.406-.156-.65-.247-.734-.27a1.226,1.226,0,0,0-.318-.035.8.8,0,0,0-.733.415Z" transform="translate(-599.886 -481.388)" fill="#216b27"/>
    </g>
    <path id="Trazado_92" data-name="Trazado 92" d="M704.916,434.82s2.329-2.443,2.853-4.283l-1.5-1.516L704.555,432Z" transform="translate(-78.009 -42.636)" fill="#5a5a5a"/>
    <g id="Grupo_46" data-name="Grupo 46" transform="translate(580.224 332.671)">
      <g id="Grupo_45" data-name="Grupo 45" transform="translate(0)">
        <path id="Trazado_93" data-name="Trazado 93" d="M681.521,400.318a5.087,5.087,0,0,1-.992.1,6.628,6.628,0,0,1-3.251-.941,21.83,21.83,0,0,1-3.921-3.02q-1.577-1.481-3.605-3.782t-3.527-4.3q1.892-3.48,2.876-5.641l1.221-2.561q2.956-6.241,4.965-8.162a7,7,0,0,1,2.168-1.421,10.54,10.54,0,0,1,2.956-.62v-.8H665.083v.841q5.477.8,5.476,4.671a13.389,13.389,0,0,1-1.1,4.751,88.709,88.709,0,0,1-3.862,8.023L652.408,368.89q.947-.68,3.515-2.361a17.585,17.585,0,0,0,5.254-4.742,9.732,9.732,0,0,0,1.62-5.542,8.72,8.72,0,0,0-3.158-6.942,11.949,11.949,0,0,0-8.052-2.7,12.582,12.582,0,0,0-6.435,1.56,9.907,9.907,0,0,0-4.066,4.561,10.46,10.46,0,0,0-1.105,4.6,19,19,0,0,0,2.4,8.443,49.839,49.839,0,0,0,3.468,5.562l-.631.44a51.09,51.09,0,0,0-5.142,3.781,20.67,20.67,0,0,0-3.212,3.461,17.325,17.325,0,0,0-3.389,10.4,13.6,13.6,0,0,0,3.511,9.6,13.043,13.043,0,0,0,4.872,3.281,16.355,16.355,0,0,0,6.174,1.2,15.568,15.568,0,0,0,11.875-5.362,44.29,44.29,0,0,0,2.84-3.841,37.887,37.887,0,0,0,6.109,6.042,15.592,15.592,0,0,0,4.3,2.32,13.518,13.518,0,0,0,4.533.841,8.324,8.324,0,0,0,5.327-1.668C682.519,401.327,682.019,400.824,681.521,400.318Zm-36.479-42.751a9.215,9.215,0,0,1-.687-3.441,6.565,6.565,0,0,1,1.689-4.681,5.8,5.8,0,0,1,4.44-1.8A6.15,6.15,0,0,1,655.552,350a9.91,9.91,0,0,1,1.886,6.362,14.9,14.9,0,0,1-1.377,6.362,11.905,11.905,0,0,1-1.633,2.681,19.256,19.256,0,0,1-2.772,2.6q-2.158-2.841-4-5.722A30.619,30.619,0,0,1,645.042,357.566Zm14.832,39.053a13.462,13.462,0,0,1-1.93,1.96,10.349,10.349,0,0,1-10.97,1.32,10.469,10.469,0,0,1-3.6-2.8,15.274,15.274,0,0,1-2.561-4.882,18.985,18.985,0,0,1-.945-5.963,18.056,18.056,0,0,1,1.8-8.123,13.74,13.74,0,0,1,5.055-5.682l15.318,21.007A34.785,34.785,0,0,1,659.874,396.62Z" transform="translate(-633.48 -346.603)" fill="#8c8c89"/>
      </g>
    </g>
    <rect id="Rect치ngulo_8" data-name="Rect치ngulo 8" width="32.509" height="1.951" transform="translate(480.561 427.764)" fill="#8c8c89"/>
    <rect id="Rect치ngulo_9" data-name="Rect치ngulo 9" width="32.509" height="1.951" transform="translate(650.91 427.764)" fill="#8c8c89"/>
  </g>
</svg>
